<?xml version="1.0" encoding="UTF-8"?>
<svg width="18px" height="18px" viewBox="0 0 18 18" version="1.1" xmlns="http://www.w3.org/2000/svg" xmlns:xlink="http://www.w3.org/1999/xlink">
    <title>Fill 1 Copy</title>
    <g id="Desktop" stroke="none" stroke-width="1" fill="none" fill-rule="evenodd">
        <g id="one-pager-desktop-Design" transform="translate(-680.000000, -6942.000000)" fill="#FFFFFF">
            <path d="M694,6955 L692.078745,6955 L692.078745,6951.94372 C692.078745,6951.1054 691.737625,6950.63728 691.027937,6950.63728 C690.255024,6950.63728 689.851658,6951.12508 689.851658,6951.94372 L689.851658,6955 L688,6955 L688,6949.17755 L689.851658,6949.17755 L689.851658,6949.96187 C689.851658,6949.96187 690.40843,6949 691.731253,6949 C693.053096,6949 694,6949.75412 694,6951.31361 L694,6955 Z M686,6948 C685.447402,6948 685,6947.55196 685,6947 C685,6946.44761 685.447402,6946 686,6946 C686.552168,6946 687,6946.44761 687,6947 C687,6947.55196 686.552168,6948 686,6948 L686,6948 Z M685,6955 L687,6955 L687,6949 L685,6949 L685,6955 Z M689.000236,6942 C684.029794,6942 680,6946.02932 680,6950.99976 L680,6950.99976 C680,6955.97068 684.029794,6960 689.000236,6960 C693.970679,6960 698,6955.97068 698,6950.99976 L698,6950.99976 C698,6946.02932 693.970679,6942 689.000236,6942 L689.000236,6942 Z" id="Fill-1-Copy"></path>
        </g>
    </g>
</svg>