<?xml version="1.0" encoding="UTF-8"?>
<svg width="81px" height="85px" viewBox="0 0 81 85" version="1.1" xmlns="http://www.w3.org/2000/svg" xmlns:xlink="http://www.w3.org/1999/xlink">
    <title>Group 35</title>
    <defs>
        <linearGradient x1="50%" y1="37.6140711%" x2="50%" y2="106.327249%" id="linearGradient-1">
            <stop stop-color="#83DDE0" offset="0%"></stop>
            <stop stop-color="#309FA5" offset="100%"></stop>
        </linearGradient>
        <linearGradient x1="33.5511387%" y1="34.1622361%" x2="53.9907715%" y2="62.8294286%" id="linearGradient-2">
            <stop stop-color="#16637D" stop-opacity="0" offset="0%"></stop>
            <stop stop-color="#16637D" offset="100%"></stop>
        </linearGradient>
        <linearGradient x1="87.0104077%" y1="79.3681066%" x2="7.93731077%" y2="-6.95542279%" id="linearGradient-3">
            <stop stop-color="#90E7C2" offset="0%"></stop>
            <stop stop-color="#408869" offset="100%"></stop>
        </linearGradient>
    </defs>
    <g id="Desktop" stroke="none" stroke-width="1" fill="none" fill-rule="evenodd">
        <g id="one-pager-desktop-Design" transform="translate(-505.000000, -621.000000)" fill-rule="nonzero">
            <g id="Group-35" transform="translate(505.000000, 621.000000)">
                <g id="Group" transform="translate(19.000000, 15.000000)">
                    <path d="M42.9533426,7.59148261 C42.9533426,7.59148261 29.054348,11.4350083 21.5,-7.87312216e-15 C13.945652,11.4336232 0.0466574048,7.59148261 0.0466574048,7.59148261 C-1.16164715,35.7537916 21.5,52.675 21.5,52.675 C21.5,52.675 44.1616471,35.7551767 42.9533426,7.59148261 Z" id="Path" fill="url(#linearGradient-1)"></path>
                    <path d="M42.9533426,7.59148261 C42.9533426,7.59148261 29.054348,11.4350083 21.5,-7.87312216e-15 L21.5,52.675 C21.5,52.675 44.1616471,35.7551767 42.9533426,7.59148261 Z" id="Path" fill="url(#linearGradient-2)" opacity="0.6"></path>
                    <path d="M28.1354475,24.4643028 L26.870635,24.4643028 L26.870635,20.4181191 L26.868823,20.3767948 C26.7745962,18.4417416 25.8142085,16.968442 24.165241,16.2299955 C22.8170741,15.6245053 21.2641453,15.6424724 19.9087302,16.2767099 C17.090989,17.593696 17.1453506,20.6804383 17.1634711,21.0631368 L17.1634711,21.7854129 C17.1634711,22.2561501 17.5476262,22.637052 18.0223838,22.637052 C18.4971415,22.637052 18.8812966,22.2561501 18.8812966,21.7854129 L18.8812966,21.0397796 L18.8794846,20.9858784 C18.8740484,20.8924497 18.7689494,18.6896871 20.6407994,17.8146909 C21.5413893,17.3924648 22.568823,17.3798879 23.4585406,17.7787568 C24.5294635,18.2584775 25.0839515,19.1280836 25.1528095,20.4360861 L25.1528095,24.4607094 L15.8950345,24.4607094 C15.7138293,24.4607094 15.565241,24.6062426 15.565241,24.78771 L15.565241,32.7219672 C15.565241,32.9016379 15.7120172,33.0489679 15.8950345,33.0489679 L28.1354475,33.0489679 C28.3166527,33.0489679 28.465241,32.9034346 28.465241,32.7219672 L28.465241,24.78771 C28.465241,24.6116327 28.3184648,24.4643028 28.1354475,24.4643028 Z M22.4637239,28.6128988 L22.8370067,30.5210014 L21.2079717,30.5210014 L21.5758183,28.6182889 C21.3148828,28.4673655 21.1354896,28.188876 21.1354896,27.8672655 C21.1354896,27.385748 21.528705,26.9958627 22.014335,26.9958627 C22.499965,26.9958627 22.8931943,27.385748 22.8931943,27.8672655 C22.8949924,28.1852826 22.7210353,28.4601787 22.4637239,28.6128988 Z" id="Shape" fill="#FFFFFF"></path>
                </g>
                <path d="M81,40.3142258 C81,18.0854133 62.8322681,0 40.4993414,0 C18.1677319,0 0,18.0841021 0,40.3142258 C0,50.751396 4.01370932,60.2681023 10.5763282,67.4351341 L12.8235839,65.8131768 C6.58369517,59.1103107 2.76098941,50.1508654 2.76098941,40.3142258 C2.76098941,19.5998519 19.6904913,2.74828001 40.5006586,2.74828001 C61.310826,2.74828001 78.2403279,19.6011631 78.2403279,40.3142258 C78.2403279,60.4660939 62.2144704,76.9570851 42.1828072,77.8382131 L42.1828072,73.7813532 L36.5475435,79.3906766 L42.1828072,85 L42.1828072,80.5904267 C63.7372298,79.7079875 81,61.9818437 81,40.3142258 Z" id="Path" fill="url(#linearGradient-3)"></path>
            </g>
        </g>
    </g>
</svg>