<?xml version="1.0" encoding="UTF-8"?>
<svg width="89px" height="85px" viewBox="0 0 89 85" version="1.1" xmlns="http://www.w3.org/2000/svg" xmlns:xlink="http://www.w3.org/1999/xlink">
    <title>Group 27</title>
    <defs>
        <linearGradient x1="50%" y1="37.6140711%" x2="50%" y2="106.327249%" id="linearGradient-1">
            <stop stop-color="#83DDE0" offset="0%"></stop>
            <stop stop-color="#309FA5" offset="100%"></stop>
        </linearGradient>
        <linearGradient x1="50%" y1="37.6140711%" x2="50%" y2="106.327249%" id="linearGradient-2">
            <stop stop-color="#83DDE0" offset="0%"></stop>
            <stop stop-color="#309FA5" offset="100%"></stop>
        </linearGradient>
        <linearGradient x1="50%" y1="37.6140711%" x2="50%" y2="106.327249%" id="linearGradient-3">
            <stop stop-color="#83DDE0" offset="0%"></stop>
            <stop stop-color="#309FA5" offset="100%"></stop>
        </linearGradient>
        <linearGradient x1="50%" y1="0%" x2="50%" y2="100%" id="linearGradient-4">
            <stop stop-color="#319CB4" offset="0%"></stop>
            <stop stop-color="#16637D" offset="100%"></stop>
        </linearGradient>
    </defs>
    <g id="Desktop" stroke="none" stroke-width="1" fill="none" fill-rule="evenodd">
        <g id="one-pager-desktop-Design-ALT-2-Copy" transform="translate(-165.000000, -621.000000)">
            <g id="Group-27" transform="translate(165.000000, 621.000000)">
                <g id="noun_Recycle_3621203" transform="translate(0.000000, -0.000000)" fill-rule="nonzero">
                    <g id="Group">
                        <path d="M1.10716433,66.9406675 L17.3989134,38.8938705 L12.6318698,36.1565032 L25.2852035,30.7841392 L26.93159,44.3629959 L22.1645463,41.6270309 L5.87420799,69.6738278 C5.3752079,70.5137736 5.37089317,71.5559768 5.86292171,72.3999765 C6.33866263,73.260698 7.25216005,73.7915042 8.240095,73.7812812 L25.9567373,73.7812812 L25.9567373,79.3906406 L8.20482537,79.2574183 C5.26352132,79.2378363 2.55459122,77.6649977 1.09260375,75.1279738 C-0.369383727,72.5909499 -0.363837839,69.4725375 1.10716433,66.9406675 L1.10716433,66.9406675 Z" id="Path" fill="url(#linearGradient-1)"></path>
                        <path d="M80.5259142,79.3906406 L47.1185174,79.3906406 L47.1185174,85 L35.8322347,76.5859609 L47.1185174,68.1719218 L47.1185174,73.7812812 L80.5259142,73.7812812 C81.5318824,73.7901555 82.4646268,73.2595838 82.9665729,72.3929648 C83.4908988,71.5320957 83.4963202,70.4543228 82.9806807,69.5882851 L73.1743118,52.7055157 L78.1854214,49.8293167 L87.8902137,66.8116522 C89.3836857,69.4175045 89.3688837,72.6165469 87.8513608,75.2086337 C86.333838,77.8007204 83.5430238,79.3939617 80.5259142,79.3906406 L80.5259142,79.3906406 Z" id="Path" fill="url(#linearGradient-2)"></path>
                        <path d="M51.3508734,4.11163532 L67.6412117,32.1584322 L72.4082554,29.4224672 L70.7618689,43.0013239 L58.1085352,37.62896 L62.8755789,34.8943973 L46.5838298,6.84760036 C46.1012303,5.99804895 45.1952179,5.47324165 44.2137104,5.47470965 C43.2266402,5.45475603 42.3084395,5.97576236 41.82384,6.83077228 L32.2544831,23.2970468 L27.3675226,20.4923671 L37.0652611,4.06255343 C38.5523412,1.53755501 41.2788209,-0.010063746 44.222279,0 C47.1657371,0.0101622682 49.8813888,1.57647887 51.3508734,4.11163532 Z" id="Path" fill="url(#linearGradient-3)"></path>
                    </g>
                </g>
                <g id="Group-20" transform="translate(29.000000, 34.000000)">
                    <g id="Group" transform="translate(-0.000000, -0.000000)" fill-rule="nonzero">
                        <g id="Group-2" transform="translate(0.000000, -0.000000)">
                            <g id="Group-7" transform="translate(0.000000, -0.000000)">
                                <circle id="Oval" fill="url(#linearGradient-4)" transform="translate(14.000000, 14.000000) rotate(-45.000000) translate(-14.000000, -14.000000) " cx="14" cy="14" r="9.89949494"></circle>
                                <circle id="Oval" fill="#FFFFFF" transform="translate(15.973762, 13.995353) rotate(-82.513261) translate(-15.973762, -13.995353) " cx="15.9737621" cy="13.9953531" r="9.89983904"></circle>
                            </g>
                        </g>
                    </g>
                    <line x1="5.5" y1="14.5" x2="25.5" y2="14.5" id="Line-3" stroke="#2788A1" stroke-linecap="square"></line>
                    <line x1="16" y1="4.5" x2="16" y2="23.5" id="Line-3" stroke="#2788A1" stroke-linecap="square"></line>
                    <line x1="22.8" y1="7.5" x2="9.06497116" y2="20.9350288" id="Line-3-Copy" stroke="#2788A1" stroke-linecap="square"></line>
                    <line x1="22.4" y1="7.5" x2="9.06497116" y2="20.9350288" id="Line-3-Copy" stroke="#2788A1" stroke-linecap="square" transform="translate(15.732486, 14.217514) scale(-1, 1) translate(-15.732486, -14.217514) "></line>
                    <circle id="Oval" stroke="#2788A1" fill="#FFFFFF" cx="16" cy="14" r="7.5"></circle>
                </g>
            </g>
        </g>
    </g>
</svg>