<?xml version="1.0" encoding="UTF-8"?>
<svg width="90px" height="83px" viewBox="0 0 90 83" version="1.1" xmlns="http://www.w3.org/2000/svg" xmlns:xlink="http://www.w3.org/1999/xlink">
    <title>Group 22</title>
    <defs>
        <linearGradient x1="50%" y1="37.6140711%" x2="50%" y2="106.327249%" id="linearGradient-1">
            <stop stop-color="#83DDE0" offset="0%"></stop>
            <stop stop-color="#309FA5" offset="100%"></stop>
        </linearGradient>
        <polygon id="path-2" points="0 0 43.2692308 0 43.2692308 43.269189 0 43.269189"></polygon>
        <polygon id="path-4" points="0 0 43.2692308 0 43.2692308 43.269189 0 43.269189"></polygon>
        <linearGradient x1="50%" y1="36.6050092%" x2="50%" y2="145.150376%" id="linearGradient-6">
            <stop stop-color="#90E7C2" offset="0%"></stop>
            <stop stop-color="#408869" offset="100%"></stop>
        </linearGradient>
        <polygon id="path-7" points="0 0 33.75 0 33.75 33.75 0 33.75"></polygon>
    </defs>
    <g id="Desktop" stroke="none" stroke-width="1" fill="none" fill-rule="evenodd">
        <g id="one-pager-desktop-Design" transform="translate(-836.000000, -622.000000)">
            <g id="Group-22" transform="translate(836.000000, 622.000000)">
                <g id="Group-6" transform="translate(0.000000, 21.634615)">
                    <path d="M21.5305164,33.6544965 C14.8345636,33.6544965 9.40653628,28.2264692 9.40653628,21.5305164 C9.40653628,14.8345636 14.8345636,9.40653628 21.5305164,9.40653628 C28.2264692,9.40653628 33.6544965,14.8345636 33.6544965,21.5305164 C33.6544965,28.2264692 28.2264692,33.6544965 21.5305164,33.6544965 M21.5305164,8.77943386 C14.4996094,8.77943386 8.77943386,14.4996518 8.77943386,21.5306111 C8.77943386,28.5615703 14.4996094,34.2815989 21.5305164,34.2815989 C28.5614234,34.2815989 34.2815989,28.5615703 34.2815989,21.5306111 C34.2815989,14.4996518 28.5614234,8.77943386 21.5305164,8.77943386" id="Fill-1" fill="url(#linearGradient-1)"></path>
                    <g id="Group-5">
                        <mask id="mask-3" fill="white">
                            <use xlink:href="#path-2"></use>
                        </mask>
                        <g id="Clip-4"></g>
                        <path d="M21.6346154,35.9289551 C13.7525651,35.9289551 7.34002478,29.5166239 7.34002478,21.6345736 C7.34002478,13.7525233 13.7525651,7.33998297 21.6346154,7.33998297 C29.5166657,7.33998297 35.929206,13.7525233 35.929206,21.6345736 C35.929206,29.5166239 29.5166657,35.9289551 21.6346154,35.9289551 M42.8279597,19.0477761 L39.5195764,19.0477761 C39.303017,19.0477761 39.1213663,18.8899553 39.0852034,18.6763224 C38.8985359,17.5692776 38.6077695,16.4981867 38.225655,15.4709929 C38.1501937,15.2680208 38.2287906,15.0408007 38.4162942,14.93273 L41.2819432,13.2782248 C41.4930677,13.1561489 41.5653935,12.8862858 41.4435266,12.6751613 L39.2982092,8.95916142 C39.1763423,8.74824597 38.9062702,8.67592016 38.6953548,8.79778706 L35.8259431,10.4541736 C35.6386485,10.5624533 35.402649,10.5170929 35.2646865,10.3504927 C34.557524,9.49721529 33.7719737,8.711665 32.9186963,8.0045025 C32.7520961,7.86653997 32.7067357,7.63054043 32.8148063,7.44324584 L34.4714019,4.57404324 C34.5932688,4.36291876 34.520943,4.09305568 34.3098185,3.97118878 L30.5938186,1.82566237 C30.3829032,1.70379547 30.1128311,1.77612128 29.9909642,1.98724576 L28.3364589,4.85289478 C28.2281793,5.0403984 28.0011682,5.11899524 27.798196,5.04353391 C26.7710023,4.66141951 25.6997023,4.37065302 24.5926575,4.18398553 C24.3792336,4.14782263 24.2214129,3.96638099 24.2214129,3.74961259 L24.2214129,0.441229262 C24.2214129,0.197495455 24.0236666,-4.18068279e-05 23.7799328,-4.18068279e-05 L19.489089,-4.18068279e-05 C19.2453552,-4.18068279e-05 19.0478179,0.197495455 19.0478179,0.441229262 L19.0478179,3.74982162 C19.0478179,3.96638099 18.8899971,4.14803166 18.6763642,4.18398553 C17.5693194,4.37065302 16.4980195,4.66141951 15.4710347,5.04353391 C15.2680626,5.11920427 15.0408425,5.0403984 14.9325628,4.85289478 L13.2780576,1.98724576 C13.1561907,1.77612128 12.8863276,1.70379547 12.6752031,1.82566237 L8.95920323,3.97118878 C8.74807874,4.09305568 8.67575293,4.36291876 8.79761984,4.57404324 L10.4542154,7.44324584 C10.5624951,7.63054043 10.5171347,7.86653997 10.3505345,8.0045025 C9.4972571,8.71187403 8.71191584,9.49721529 8.00454431,10.3504927 C7.86658178,10.5170929 7.63079127,10.5624533 7.44328764,10.4541736 L4.57408504,8.79778706 C4.36296056,8.67592016 4.09309749,8.74824597 3.97123058,8.95916142 L1.82591321,12.6751613 C1.70404631,12.8862858 1.77637212,13.1561489 1.98728757,13.2782248 L4.85293659,14.932521 C5.04044021,15.0408007 5.11924608,15.2680208 5.04357572,15.4709929 C4.66146131,16.4981867 4.37069483,17.5692776 4.18402734,18.6763224 C4.14807347,18.8899553 3.9664228,19.0477761 3.74986343,19.0477761 L0.441271069,19.0477761 C0.197537262,19.0477761 0,19.2453134 0,19.4890472 L0,23.779891 C0,24.0238338 0.197537262,24.2213711 0.441271069,24.2213711 L3.74986343,24.2213711 C3.9664228,24.2213711 4.14807347,24.3791918 4.18402734,24.5926157 C4.37069483,25.6998695 4.66146131,26.7709605 5.04378476,27.7981542 C5.11924608,28.0011264 5.04044021,28.2283465 4.85293659,28.3364171 L1.98728757,29.9911314 C1.77637212,30.1129983 1.70404631,30.3828614 1.82591321,30.5939858 L3.97123058,34.3099857 C4.09309749,34.5209012 4.36296056,34.593227 4.57408504,34.4713601 L7.44328764,32.8149736 C7.63079127,32.7066939 7.86658178,32.7520543 8.00454431,32.9186545 C8.71191584,33.7719319 9.4972571,34.5572731 10.3505345,35.2646447 C10.5171347,35.4026072 10.5624951,35.6386067 10.4544244,35.8259013 L8.79761984,38.695313 C8.67575293,38.9064374 8.74807874,39.1763005 8.95920323,39.2981674 L12.6752031,41.4434848 C12.8863276,41.5653517 13.1561907,41.4930259 13.2780576,41.2821104 L14.9327718,38.4162524 C15.0410515,38.2287488 15.2680626,38.1499429 15.4710347,38.2256132 C16.4982285,38.6077276 17.5693194,38.8984941 18.6763642,39.0851616 C18.8899971,39.1211155 19.0478179,39.3027662 19.0478179,39.5193255 L19.0478179,42.8279179 C19.0478179,43.0716517 19.2453552,43.269189 19.489089,43.269189 L23.7799328,43.269189 C24.0236666,43.269189 24.2214129,43.0716517 24.2214129,42.8279179 L24.2214129,39.5195346 C24.2214129,39.3029752 24.3792336,39.1213245 24.5926575,39.0851616 C25.6997023,38.8984941 26.7710023,38.6077276 27.798196,38.2256132 C28.0009591,38.1501519 28.2281793,38.2287488 28.3364589,38.4162524 L29.9909642,41.2821104 C30.1128311,41.4930259 30.3829032,41.5653517 30.5938186,41.4434848 L34.3098185,39.2981674 C34.520943,39.1763005 34.5932688,38.9064374 34.4714019,38.695313 L32.8148063,35.8259013 C32.7067357,35.6386067 32.7520961,35.4026072 32.9186963,35.2646447 C33.7719737,34.5574822 34.557524,33.7719319 35.2646865,32.9186545 C35.402649,32.7520543 35.6386485,32.7066939 35.8259431,32.8147645 L38.6953548,34.4713601 C38.9062702,34.593227 39.1763423,34.5209012 39.2982092,34.3099857 L41.4435266,30.5939858 C41.5653935,30.3828614 41.4930677,30.1129983 41.2819432,29.9911314 L38.4162942,28.3364171 C38.2287906,28.2283465 38.1501937,28.0011264 38.225655,27.7981542 C38.6077695,26.7709605 38.8985359,25.6998695 39.0852034,24.5926157 C39.1213663,24.3791918 39.303017,24.2213711 39.5195764,24.2213711 L42.8279597,24.2213711 C43.0716935,24.2213711 43.2692308,24.0238338 43.2692308,23.779891 L43.2692308,19.4890472 C43.2692308,19.2453134 43.0716935,19.0477761 42.8279597,19.0477761" id="Fill-3" fill="url(#linearGradient-1)" mask="url(#mask-3)"></path>
                    </g>
                </g>
                <g id="Group-6-Copy-2" transform="translate(46.730769, 38.942308)">
                    <path d="M21.5305164,33.6544965 C14.8345636,33.6544965 9.40653628,28.2264692 9.40653628,21.5305164 C9.40653628,14.8345636 14.8345636,9.40653628 21.5305164,9.40653628 C28.2264692,9.40653628 33.6544965,14.8345636 33.6544965,21.5305164 C33.6544965,28.2264692 28.2264692,33.6544965 21.5305164,33.6544965 M21.5305164,8.77943386 C14.4996094,8.77943386 8.77943386,14.4996518 8.77943386,21.5306111 C8.77943386,28.5615703 14.4996094,34.2815989 21.5305164,34.2815989 C28.5614234,34.2815989 34.2815989,28.5615703 34.2815989,21.5306111 C34.2815989,14.4996518 28.5614234,8.77943386 21.5305164,8.77943386" id="Fill-1" fill="url(#linearGradient-1)"></path>
                    <g id="Group-5">
                        <mask id="mask-5" fill="white">
                            <use xlink:href="#path-4"></use>
                        </mask>
                        <g id="Clip-4"></g>
                        <path d="M21.6346154,35.9289551 C13.7525651,35.9289551 7.34002478,29.5166239 7.34002478,21.6345736 C7.34002478,13.7525233 13.7525651,7.33998297 21.6346154,7.33998297 C29.5166657,7.33998297 35.929206,13.7525233 35.929206,21.6345736 C35.929206,29.5166239 29.5166657,35.9289551 21.6346154,35.9289551 M42.8279597,19.0477761 L39.5195764,19.0477761 C39.303017,19.0477761 39.1213663,18.8899553 39.0852034,18.6763224 C38.8985359,17.5692776 38.6077695,16.4981867 38.225655,15.4709929 C38.1501937,15.2680208 38.2287906,15.0408007 38.4162942,14.93273 L41.2819432,13.2782248 C41.4930677,13.1561489 41.5653935,12.8862858 41.4435266,12.6751613 L39.2982092,8.95916142 C39.1763423,8.74824597 38.9062702,8.67592016 38.6953548,8.79778706 L35.8259431,10.4541736 C35.6386485,10.5624533 35.402649,10.5170929 35.2646865,10.3504927 C34.557524,9.49721529 33.7719737,8.711665 32.9186963,8.0045025 C32.7520961,7.86653997 32.7067357,7.63054043 32.8148063,7.44324584 L34.4714019,4.57404324 C34.5932688,4.36291876 34.520943,4.09305568 34.3098185,3.97118878 L30.5938186,1.82566237 C30.3829032,1.70379547 30.1128311,1.77612128 29.9909642,1.98724576 L28.3364589,4.85289478 C28.2281793,5.0403984 28.0011682,5.11899524 27.798196,5.04353391 C26.7710023,4.66141951 25.6997023,4.37065302 24.5926575,4.18398553 C24.3792336,4.14782263 24.2214129,3.96638099 24.2214129,3.74961259 L24.2214129,0.441229262 C24.2214129,0.197495455 24.0236666,-4.18068279e-05 23.7799328,-4.18068279e-05 L19.489089,-4.18068279e-05 C19.2453552,-4.18068279e-05 19.0478179,0.197495455 19.0478179,0.441229262 L19.0478179,3.74982162 C19.0478179,3.96638099 18.8899971,4.14803166 18.6763642,4.18398553 C17.5693194,4.37065302 16.4980195,4.66141951 15.4710347,5.04353391 C15.2680626,5.11920427 15.0408425,5.0403984 14.9325628,4.85289478 L13.2780576,1.98724576 C13.1561907,1.77612128 12.8863276,1.70379547 12.6752031,1.82566237 L8.95920323,3.97118878 C8.74807874,4.09305568 8.67575293,4.36291876 8.79761984,4.57404324 L10.4542154,7.44324584 C10.5624951,7.63054043 10.5171347,7.86653997 10.3505345,8.0045025 C9.4972571,8.71187403 8.71191584,9.49721529 8.00454431,10.3504927 C7.86658178,10.5170929 7.63079127,10.5624533 7.44328764,10.4541736 L4.57408504,8.79778706 C4.36296056,8.67592016 4.09309749,8.74824597 3.97123058,8.95916142 L1.82591321,12.6751613 C1.70404631,12.8862858 1.77637212,13.1561489 1.98728757,13.2782248 L4.85293659,14.932521 C5.04044021,15.0408007 5.11924608,15.2680208 5.04357572,15.4709929 C4.66146131,16.4981867 4.37069483,17.5692776 4.18402734,18.6763224 C4.14807347,18.8899553 3.9664228,19.0477761 3.74986343,19.0477761 L0.441271069,19.0477761 C0.197537262,19.0477761 0,19.2453134 0,19.4890472 L0,23.779891 C0,24.0238338 0.197537262,24.2213711 0.441271069,24.2213711 L3.74986343,24.2213711 C3.9664228,24.2213711 4.14807347,24.3791918 4.18402734,24.5926157 C4.37069483,25.6998695 4.66146131,26.7709605 5.04378476,27.7981542 C5.11924608,28.0011264 5.04044021,28.2283465 4.85293659,28.3364171 L1.98728757,29.9911314 C1.77637212,30.1129983 1.70404631,30.3828614 1.82591321,30.5939858 L3.97123058,34.3099857 C4.09309749,34.5209012 4.36296056,34.593227 4.57408504,34.4713601 L7.44328764,32.8149736 C7.63079127,32.7066939 7.86658178,32.7520543 8.00454431,32.9186545 C8.71191584,33.7719319 9.4972571,34.5572731 10.3505345,35.2646447 C10.5171347,35.4026072 10.5624951,35.6386067 10.4544244,35.8259013 L8.79761984,38.695313 C8.67575293,38.9064374 8.74807874,39.1763005 8.95920323,39.2981674 L12.6752031,41.4434848 C12.8863276,41.5653517 13.1561907,41.4930259 13.2780576,41.2821104 L14.9327718,38.4162524 C15.0410515,38.2287488 15.2680626,38.1499429 15.4710347,38.2256132 C16.4982285,38.6077276 17.5693194,38.8984941 18.6763642,39.0851616 C18.8899971,39.1211155 19.0478179,39.3027662 19.0478179,39.5193255 L19.0478179,42.8279179 C19.0478179,43.0716517 19.2453552,43.269189 19.489089,43.269189 L23.7799328,43.269189 C24.0236666,43.269189 24.2214129,43.0716517 24.2214129,42.8279179 L24.2214129,39.5195346 C24.2214129,39.3029752 24.3792336,39.1213245 24.5926575,39.0851616 C25.6997023,38.8984941 26.7710023,38.6077276 27.798196,38.2256132 C28.0009591,38.1501519 28.2281793,38.2287488 28.3364589,38.4162524 L29.9909642,41.2821104 C30.1128311,41.4930259 30.3829032,41.5653517 30.5938186,41.4434848 L34.3098185,39.2981674 C34.520943,39.1763005 34.5932688,38.9064374 34.4714019,38.695313 L32.8148063,35.8259013 C32.7067357,35.6386067 32.7520961,35.4026072 32.9186963,35.2646447 C33.7719737,34.5574822 34.557524,33.7719319 35.2646865,32.9186545 C35.402649,32.7520543 35.6386485,32.7066939 35.8259431,32.8147645 L38.6953548,34.4713601 C38.9062702,34.593227 39.1763423,34.5209012 39.2982092,34.3099857 L41.4435266,30.5939858 C41.5653935,30.3828614 41.4930677,30.1129983 41.2819432,29.9911314 L38.4162942,28.3364171 C38.2287906,28.2283465 38.1501937,28.0011264 38.225655,27.7981542 C38.6077695,26.7709605 38.8985359,25.6998695 39.0852034,24.5926157 C39.1213663,24.3791918 39.303017,24.2213711 39.5195764,24.2213711 L42.8279597,24.2213711 C43.0716935,24.2213711 43.2692308,24.0238338 43.2692308,23.779891 L43.2692308,19.4890472 C43.2692308,19.2453134 43.0716935,19.0477761 42.8279597,19.0477761" id="Fill-3" fill="url(#linearGradient-6)" mask="url(#mask-5)"></path>
                    </g>
                </g>
                <g id="Group-6-Copy" transform="translate(43.269231, 0.000000)">
                    <path d="M16.875,26.3374842 C11.6489647,26.3374842 7.41251576,22.1010353 7.41251576,16.875 C7.41251576,11.6489647 11.6489647,7.41251576 16.875,7.41251576 C22.1010353,7.41251576 26.3374842,11.6489647 26.3374842,16.875 C26.3374842,22.1010353 22.1010353,26.3374842 16.875,26.3374842 M16.875,6.92307692 C11.3875407,6.92307692 6.92307692,11.3875739 6.92307692,16.8750739 C6.92307692,22.3625739 11.3875407,26.8269231 16.875,26.8269231 C22.3624593,26.8269231 26.8269231,22.3625739 26.8269231,16.8750739 C26.8269231,11.3875739 22.3624593,6.92307692 16.875,6.92307692" id="Fill-1" fill="#FFFFFF"></path>
                    <g id="Group-5" transform="translate(0.000000, -0.000000)">
                        <mask id="mask-8" fill="white">
                            <use xlink:href="#path-7"></use>
                        </mask>
                        <g id="Clip-4"></g>
                        <path d="M16.875,28.0246121 C10.7270008,28.0246121 5.72521933,23.0229889 5.72521933,16.8749837 C5.72521933,10.7269785 10.7270008,5.72519225 16.875,5.72519225 C23.0229992,5.72519225 28.0247807,10.7269785 28.0247807,16.8749837 C28.0247807,23.0229889 23.0229992,28.0246121 16.875,28.0246121 M33.4058086,14.8572797 L30.8252696,14.8572797 C30.6563533,14.8572797 30.5146657,14.7341794 30.4864587,14.5675456 C30.340858,13.7040498 30.1140602,12.8685981 29.8160109,12.0673861 C29.7571511,11.9090677 29.8184566,11.7318359 29.9647095,11.6475407 L32.1999157,10.3570254 C32.3645928,10.261806 32.4210069,10.0513126 32.3259507,9.88663538 L30.6526032,6.98815266 C30.557547,6.82363845 30.3468908,6.76722426 30.1823767,6.86228054 L27.9442356,8.15426327 C27.7981459,8.23872151 27.6140662,8.20334036 27.5064554,8.07339207 C26.9548687,7.40783509 26.3421395,6.79510526 25.6765831,6.24351798 C25.546635,6.13590711 25.5112538,5.95182728 25.5955489,5.80573736 L26.8876935,3.56775717 C26.9827497,3.40307992 26.9263355,3.19258652 26.7616584,3.09753024 L23.8631785,1.42401802 C23.6986645,1.32896175 23.4880082,1.38537594 23.392952,1.55005319 L22.102438,3.78526159 C22.0179798,3.93151455 21.8409112,3.99282014 21.6825929,3.93396025 C20.8813818,3.63591073 20.0457678,3.40911265 19.1822728,3.26351187 C19.0158022,3.23530477 18.892702,3.09378016 18.892702,2.92470065 L18.892702,0.344159157 C18.892702,0.154046604 18.7384599,-3.26093573e-05 18.5483476,-3.26093573e-05 L15.2014894,-3.26093573e-05 C15.011377,-3.26093573e-05 14.857298,0.154046604 14.857298,0.344159157 L14.857298,2.92486369 C14.857298,3.09378016 14.7341978,3.23546782 14.5675641,3.26351187 C13.7040692,3.40911265 12.8684552,3.63591073 12.0674071,3.93396025 C11.9090888,3.99298319 11.7318571,3.93151455 11.647399,3.78526159 L10.3568849,1.55005319 C10.2618287,1.38537594 10.0513355,1.32896175 9.88665844,1.42401802 L6.98817852,3.09753024 C6.82350142,3.19258652 6.76708729,3.40307992 6.86214347,3.56775717 L8.15428801,5.80573736 C8.23874616,5.95182728 8.20336504,6.13590711 8.07341688,6.24351798 C7.40786054,6.79526831 6.79529435,7.40783509 6.24354456,8.07339207 C6.13593379,8.20334036 5.95201719,8.23872151 5.80576436,8.15426327 L3.56778633,6.86228054 C3.40310924,6.76722426 3.19261604,6.82363845 3.09755986,6.98815266 L1.4242123,9.88663538 C1.32915612,10.0513126 1.38557025,10.261806 1.5500843,10.3570254 L3.78529054,11.6473776 C3.93154336,11.7318359 3.99301194,11.9090677 3.93398906,12.0673861 C3.63593982,12.8685981 3.40914196,13.7040498 3.26354132,14.5675456 C3.2354973,14.7341794 3.09380978,14.8572797 2.92489348,14.8572797 L0.344191434,14.8572797 C0.154079064,14.8572797 0,15.0113589 0,15.2014715 L0,18.5483329 C0,18.7386085 0.154079064,18.8926877 0.344191434,18.8926877 L2.92489348,18.8926877 C3.09380978,18.8926877 3.2354973,19.015788 3.26354132,19.1822588 C3.40914196,20.0459176 3.63593982,20.8813693 3.93415211,21.6825812 C3.99301194,21.8408997 3.93154336,22.0181315 3.78529054,22.1024267 L1.5500843,23.3931051 C1.38557025,23.4881614 1.32915612,23.6986548 1.4242123,23.863332 L3.09755986,26.7618147 C3.19261604,26.9263289 3.40310924,26.9827431 3.56778633,26.8876869 L5.80576436,25.5957041 C5.95201719,25.5112459 6.13593379,25.546627 6.24354456,25.6765753 C6.79529435,26.3421323 7.40786054,26.9546991 8.07341688,27.5064494 C8.20336504,27.6140603 8.23874616,27.7981401 8.15445105,27.94423 L6.86214347,30.1823733 C6.76708729,30.3470505 6.82350142,30.5575439 6.98817852,30.6526002 L9.88665844,32.3259494 C10.0513355,32.4210056 10.2618287,32.3645915 10.3568849,32.2000772 L11.647562,29.9647058 C11.7320202,29.8184528 11.9090888,29.7569842 12.0674071,29.8160071 C12.8686182,30.1140567 13.7040692,30.3408547 14.5675641,30.4864555 C14.7341978,30.5144996 14.857298,30.6561872 14.857298,30.8251037 L14.857298,33.4058082 C14.857298,33.5959208 15.011377,33.75 15.2014894,33.75 L18.5483476,33.75 C18.7384599,33.75 18.892702,33.5959208 18.892702,33.4058082 L18.892702,30.8252667 C18.892702,30.6563503 19.0158022,30.5146626 19.1822728,30.4864555 C20.0457678,30.3408547 20.8813818,30.1140567 21.6825929,29.8160071 C21.8407481,29.7571472 22.0179798,29.8184528 22.102438,29.9647058 L23.392952,32.2000772 C23.4880082,32.3645915 23.6986645,32.4210056 23.8631785,32.3259494 L26.7616584,30.6526002 C26.9263355,30.5575439 26.9827497,30.3470505 26.8876935,30.1823733 L25.5955489,27.94423 C25.5112538,27.7981401 25.546635,27.6140603 25.6765831,27.5064494 C26.3421395,26.9548621 26.9548687,26.3421323 27.5064554,25.6765753 C27.6140662,25.546627 27.7981459,25.5112459 27.9442356,25.5955411 L30.1823767,26.8876869 C30.3468908,26.9827431 30.557547,26.9263289 30.6526032,26.7618147 L32.3259507,23.863332 C32.4210069,23.6986548 32.3645928,23.4881614 32.1999157,23.3931051 L29.9647095,22.1024267 C29.8184566,22.0181315 29.7571511,21.8408997 29.8160109,21.6825812 C30.1140602,20.8813693 30.340858,20.0459176 30.4864587,19.1822588 C30.5146657,19.015788 30.6563533,18.8926877 30.8252696,18.8926877 L33.4058086,18.8926877 C33.5959209,18.8926877 33.75,18.7386085 33.75,18.5483329 L33.75,15.2014715 C33.75,15.0113589 33.5959209,14.8572797 33.4058086,14.8572797" id="Fill-3" fill="#FFFFFF" mask="url(#mask-8)"></path>
                    </g>
                </g>
            </g>
        </g>
    </g>
</svg>