<?xml version="1.0" encoding="UTF-8"?>
<svg width="440px" height="440px" viewBox="0 0 440 440" version="1.1" xmlns="http://www.w3.org/2000/svg" xmlns:xlink="http://www.w3.org/1999/xlink">
    <title>Group 8 Copy 2</title>
    <defs>
        <linearGradient x1="50%" y1="0%" x2="50%" y2="100%" id="linearGradient-1">
            <stop stop-color="#C0F1DF" offset="0%"></stop>
            <stop stop-color="#8CDFBB" offset="100%"></stop>
        </linearGradient>
    </defs>
    <g id="Desktop" stroke="none" stroke-width="1" fill="none" fill-rule="evenodd" opacity="0.95">
        <g id="one-pager-desktop-Design" transform="translate(-494.000000, -4584.000000)">
            <g id="Group-8-Copy-2" transform="translate(494.000000, 4584.000000)">
                <path d="M229.06527,97.3705967 L428.412956,220.842291 L428.412956,219.412956 C428.412956,218.308387 429.308387,217.412956 430.412956,217.412956 L433.412956,217.412956 C434.517526,217.412956 435.412956,218.308387 435.412956,219.412956 L435.412956,228.412956 C435.412956,228.756441 435.326368,229.079701 435.173828,229.362101 C435.050438,229.779272 434.869768,230.18682 434.629735,230.574359 C434.226869,231.224793 433.68011,231.774099 433.031555,232.179982 L221.020373,364.86233 C219.387946,365.883946 217.313894,365.877264 215.688085,364.845149 L6.93380331,232.321384 C5.92478483,231.680828 5.22319993,230.738738 4.87193318,229.687106 C4.58517247,229.341556 4.4129561,228.897367 4.4129561,228.412956 L4.4129561,219.412956 C4.4129561,218.308387 5.3083866,217.412956 6.4129561,217.412956 L9.4129561,217.412956 C10.5175256,217.412956 11.4129561,218.308387 11.4129561,219.412956 L11.4129561,221.261291 L223.913105,97.302407 C225.510891,96.3703568 227.492711,96.3965866 229.06527,97.3705967 Z" id="Combined-Shape" fill="#4D9275"></path>
                <path d="M134.074485,121.140538 L367.608405,66.2504641 C370.296574,65.6186339 372.987965,67.2856257 373.619795,69.9737946 C373.794853,70.7185896 373.796654,71.4936246 373.625059,72.239225 L317.531101,315.974358 C317.099194,317.851049 315.627892,319.3129 313.748456,319.732705 L72.4284351,373.635821 C69.7334243,374.237799 67.0606864,372.541062 66.4587079,369.846051 C66.2845456,369.06634 66.2997607,368.256246 66.5030787,367.483625 L130.383137,124.735451 C130.853883,122.946587 132.273789,121.563775 134.074485,121.140538 Z" id="Rectangle-Copy-39" fill="url(#linearGradient-1)" transform="translate(219.919588, 219.919588) rotate(45.000000) translate(-219.919588, -219.919588) "></path>
            </g>
        </g>
    </g>
</svg>