<?xml version="1.0" encoding="UTF-8"?>
<svg width="50px" height="79px" viewBox="0 0 50 79" version="1.1" xmlns="http://www.w3.org/2000/svg" xmlns:xlink="http://www.w3.org/1999/xlink">
    <title>Group 22</title>
    <defs>
        <polygon id="path-1" points="0 0 50 0 50 53.4669097 0 53.4669097"></polygon>
        <linearGradient x1="50%" y1="37.6140711%" x2="50%" y2="106.327249%" id="linearGradient-3">
            <stop stop-color="#83DDE0" offset="0%"></stop>
            <stop stop-color="#309FA5" offset="100%"></stop>
        </linearGradient>
        <polygon id="path-4" points="-2.18817188e-15 -4.37634376e-15 11.2302976 -4.37634376e-15 11.2302976 3.80383334 -2.18817188e-15 3.80383334"></polygon>
        <linearGradient x1="50%" y1="43.5866268%" x2="50%" y2="127.881175%" id="linearGradient-6">
            <stop stop-color="#2995B4" offset="0%"></stop>
            <stop stop-color="#003E56" offset="100%"></stop>
        </linearGradient>
        <linearGradient x1="50%" y1="36.6050092%" x2="50%" y2="145.150376%" id="linearGradient-7">
            <stop stop-color="#90E7C2" offset="0%"></stop>
            <stop stop-color="#408869" offset="100%"></stop>
        </linearGradient>
        <polygon id="path-8" points="2.18817188e-15 0 11.9191993 0 11.9191993 25.2733896 2.18817188e-15 25.2733896"></polygon>
        <linearGradient x1="50%" y1="43.5866268%" x2="50%" y2="127.881175%" id="linearGradient-10">
            <stop stop-color="#2995B4" offset="0%"></stop>
            <stop stop-color="#003E56" offset="100%"></stop>
        </linearGradient>
    </defs>
    <g id="Desktop" stroke="none" stroke-width="1" fill="none" fill-rule="evenodd">
        <g id="one-pager-desktop-Design" transform="translate(-1197.000000, -624.000000)">
            <g id="Group-22" transform="translate(1197.000000, 624.000000)">
                <g id="Group-3">
                    <mask id="mask-2" fill="white">
                        <use xlink:href="#path-1"></use>
                    </mask>
                    <g id="Clip-2"></g>
                    <path d="M34.9658074,53.4669097 C36.0525906,49.8444019 38.2261568,46.5837445 41.1243478,44.0477119 C46.5585714,39.5195002 50,32.6363351 50,25.0285453 C50,10.9003646 38.2261568,-0.692399382 23.7355098,0.0322253565 C10.8748835,0.575462942 0.368902666,11.4436022 0.00674427614,24.3042285 C-0.174334919,32.2741767 3.26740162,39.338421 8.88239645,44.0477119 C11.9616666,46.5837445 14.1352329,49.8440939 15.222016,53.4669097 L34.9658074,53.4669097 Z" id="Fill-1" fill="url(#linearGradient-3)" opacity="0.9" mask="url(#mask-2)"></path>
                </g>
                <path d="M22.6486959,53.8291912 L24.2787166,53.8291912 L17.0333931,26.8400763 L17.5769386,26.8400763 C18.4823346,26.8400763 19.3883465,26.4779179 20.1126633,25.7532932 C20.4748217,25.3911348 20.8369801,25.2100556 21.3805256,25.2100556 C21.9240712,25.2100556 22.2862295,25.3911348 22.6486959,25.7532932 C23.9165582,27.2025427 26.0901245,27.2025427 27.3579868,25.7532932 C27.7201452,25.3911348 28.0826115,25.2100556 28.6258491,25.2100556 C28.9883155,25.2100556 29.531553,25.3911348 29.8940194,25.7532932 C30.6186441,26.4779179 31.3429609,26.8400763 32.429744,26.8400763 L32.9732896,26.8400763 L25.9090453,53.8291912 L27.5393739,53.8291912 L34.9657766,25.572214 C34.9657766,25.2100556 34.9657766,24.8475892 34.6036183,24.6665101 C34.2411519,24.4854309 33.8786856,24.6665101 33.6979143,24.8478972 C33.335448,25.2100556 32.9732896,25.3911348 32.6111312,25.3911348 C32.0675857,25.3911348 31.7054273,25.2100556 31.1621897,24.8478972 C30.4375649,24.1232725 29.7129402,23.7611141 28.8072363,23.7611141 C27.9015323,23.7611141 27.1769076,24.1232725 26.4522829,24.8478972 C25.7279661,25.572214 24.640875,25.572214 23.9165582,24.8478972 C23.3733206,24.1232725 22.4673087,23.7611141 21.5616048,23.7611141 C20.6562088,23.7611141 19.7505049,24.1232725 19.2069594,24.8478972 C18.844801,25.2100556 18.3012554,25.3911348 17.7577099,25.3911348 C17.3958594,25.3911348 16.8523139,25.2100556 16.6712347,24.8478972 C16.4901555,24.6665101 16.1276892,24.4857388 15.7655308,24.6665101 C15.4033724,24.8478972 15.2219852,25.2100556 15.4033724,25.572214 L22.6486959,53.8291912 Z" id="Fill-6" fill="#FFFFFF"></path>
                <g id="Group-10" transform="translate(19.388223, 74.755233)">
                    <mask id="mask-5" fill="white">
                        <use xlink:href="#path-4"></use>
                    </mask>
                    <g id="Clip-9"></g>
                    <path d="M-2.18817188e-15,-4.37634376e-15 C0.905703933,2.17387421 3.07927019,3.80389493 5.61499484,3.80389493 C8.15102744,3.80389493 10.3245937,2.17387421 11.2302976,-4.37634376e-15 L-2.18817188e-15,-4.37634376e-15 Z" id="Fill-8" fill="#FFFFFF" mask="url(#mask-5)"></path>
                </g>
                <path d="M15.2221084,53.4669097 C14.1353253,49.8440939 11.961759,46.5837445 8.88248884,44.0477119 C3.26718605,39.338421 -0.174242532,32.2741767 0.00683666349,24.3042285 C0.368995054,11.4436022 11.2903831,1.76247905e-15 25.2753913,0.0320898478 L25.2753913,53.2855225 L15.2221084,53.4669097 Z" id="Fill-4" fill="url(#linearGradient-6)" opacity="0.595257"></path>
                <path d="M31.7053349,74.7552327 L18.4825502,74.7552327 C16.6711423,74.7552327 15.2222008,73.3062912 15.2222008,71.4948833 L15.2222008,53.2856457 L34.9656843,53.2856457 L34.9656843,71.4948833 C34.9656843,73.3059832 33.5164348,74.7552327 31.7053349,74.7552327" id="Fill-11" fill="url(#linearGradient-7)"></path>
                <path d="M34.7846051,62.1612671 L15.2222008,62.1612671 C14.1354177,62.1612671 13.2297137,61.2555631 13.2297137,60.16878 C13.2297137,59.0819969 14.1354177,58.1762929 15.2222008,58.1762929 L34.7846051,58.1762929 C35.8713882,58.1762929 36.7770921,59.0819969 36.7770921,60.16878 C36.7770921,61.2555631 35.8713882,62.1612671 34.7846051,62.1612671" id="Fill-13" fill="#FFFFFF"></path>
                <path d="M34.7846051,70.4462562 L15.2222008,70.4462562 C14.1354177,70.4462562 13.2297137,69.5405522 13.2297137,68.4537691 C13.2297137,67.366986 14.1354177,66.461282 15.2222008,66.461282 L34.7846051,66.461282 C35.8713882,66.461282 36.7770921,67.366986 36.7770921,68.4537691 C36.7770921,69.5405522 35.8713882,70.4462562 34.7846051,70.4462562" id="Fill-15" fill="#FFFFFF"></path>
                <path d="M43.4976247,21.4416066 C42.7388167,21.4416066 42.0483752,20.927933 41.8555937,20.1583464 C40.5366103,14.8854927 36.764743,10.4755368 31.7659718,8.36079048 C30.9046138,7.99647638 30.501497,7.00269651 30.866119,6.14103055 C31.2304331,5.27936458 32.2251369,4.87686372 33.085879,5.24086986 C39.0590287,7.76766373 43.5659914,13.0368219 45.1421195,19.336099 C45.3690844,20.2436507 44.817224,21.1635207 43.9099802,21.3904856 C43.7720151,21.4249769 43.6334341,21.4416066 43.4976247,21.4416066" id="Fill-17" fill="#FFFFFF"></path>
                <g id="Group-21" opacity="0.595257" transform="translate(13.229621, 53.285676)">
                    <mask id="mask-9" fill="white">
                        <use xlink:href="#path-8"></use>
                    </mask>
                    <g id="Clip-20"></g>
                    <path d="M1.99248706,0 L1.99248706,4.89067806 C0.905703933,4.89067806 2.18817188e-15,5.79638199 2.18817188e-15,6.88316512 C2.18817188e-15,7.96994824 0.905703933,8.87565218 1.99248706,8.87565218 L1.99248706,13.1756671 C0.905703933,13.1756671 2.18817188e-15,14.0813711 2.18817188e-15,15.1681542 C2.18817188e-15,16.2549373 0.905703933,17.1606413 1.99248706,17.1606413 L1.99248706,18.2092376 C1.99248706,20.0206455 3.44142858,21.469587 5.25283645,21.469587 L6.15854038,21.469587 C7.06455227,23.6434612 9.23781057,25.2734819 11.7738432,25.2734819 L11.8437496,21.469587 L11.8643828,21.469587 L11.9191993,0 L1.99248706,0 Z" id="Fill-19" fill="url(#linearGradient-10)" mask="url(#mask-9)"></path>
                </g>
            </g>
        </g>
    </g>
</svg>