<?xml version="1.0" encoding="UTF-8"?>
<svg width="17px" height="21px" viewBox="0 0 17 21" version="1.1" xmlns="http://www.w3.org/2000/svg" xmlns:xlink="http://www.w3.org/1999/xlink">
    <title>Group 3 Copy 5</title>
    <defs>
        <polygon id="path-1" points="0 0 16.0986619 0 16.0986619 21 0 21"></polygon>
    </defs>
    <g id="Desktop" stroke="none" stroke-width="1" fill="none" fill-rule="evenodd">
        <g id="one-pager-desktop-Design-ALT-5" transform="translate(-563.000000, -4372.000000)">
            <g id="Group-3-Copy-5" transform="translate(563.000000, 4372.000000)">
                <mask id="mask-2" fill="white">
                    <use xlink:href="#path-1"></use>
                </mask>
                <g id="Clip-2"></g>
                <path d="M15.4900555,17.0921829 C13.9891343,20.0940251 10.2957922,20.8267402 10.1378005,20.8576516 C10.116048,20.8622311 10.090861,20.863376 10.0691085,20.863376 C10.0427765,20.8645208 10.0175895,20.8599414 9.9912575,20.8565068 C9.97408449,20.8576516 9.95691148,20.8530722 9.93973847,20.8450581 C9.90997192,20.8416235 9.88020537,20.8290299 9.85387342,20.8084223 C9.83326581,20.7958288 9.81151333,20.7832352 9.79434032,20.7660622 C9.77716731,20.7580482 9.7599943,20.7454546 9.74740076,20.7282816 C9.74282129,20.7237021 9.73824182,20.7191227 9.73824182,20.7145432 C9.69130225,20.6550101 9.6615357,20.5863181 9.64779729,20.5164811 C9.64321783,20.5119017 9.64321783,20.5119017 9.64321783,20.5084671 C9.63978322,20.4867146 9.63978322,20.4638172 9.63978322,20.4420648 C9.63978322,20.4168777 9.64321783,20.3894009 9.64779729,20.3630689 C9.64779729,20.3458959 9.65581137,20.3241434 9.66039084,20.302391 C9.66497031,20.293232 9.66497031,20.2886525 9.66497031,20.2840731 C9.67756385,20.2623206 9.68672279,20.2405681 9.69931633,20.2222502 C9.71190987,20.2004978 9.72450341,20.1776004 9.74167642,20.1604274 C9.75083536,20.1421095 9.76800837,20.1249365 9.78518138,20.1111981 C9.78861598,20.1066186 9.79319545,20.1020392 9.79777492,20.0974597 C12.7194764,17.3635164 12.0371355,14.8963272 12.0073689,14.7921443 C11.9936305,14.7612329 11.9901959,14.7268869 11.9856165,14.6959755 C11.8447978,12.5069891 10.1503941,10.1062022 9.08452255,8.80334313 C8.8864605,10.8789877 7.6339756,14.0273729 7.3179922,14.7909995 C7.23670662,14.9902064 7.02719589,15.1001136 6.82913384,15.062333 C6.62305771,15.0199729 6.48567363,14.8356493 6.4936877,14.6249937 C6.51887478,13.9392181 5.97277305,13.0404972 5.49078389,12.4028061 C5.27669369,12.9592117 4.86683117,13.8212968 4.08832136,15.1928479 C3.74142655,15.8042071 3.54107476,16.42587 3.4941352,17.03036 C3.33041917,19.205608 4.70540487,19.9680897 5.04886508,20.120357 C5.09580465,20.1409647 5.12099173,20.1489787 5.1255712,20.1489787 C5.18968377,20.1730209 5.24578227,20.2062221 5.28928723,20.2577411 C5.30646024,20.2703347 5.31905378,20.2875077 5.33164732,20.3046807 C5.3533998,20.3436062 5.37515228,20.3825317 5.38316636,20.4214572 C5.40949831,20.4867146 5.41407777,20.5565515 5.40148423,20.6263884 C5.39690476,20.6527204 5.38774583,20.6790523 5.37973175,20.7053843 C5.33279219,20.8381889 5.22975413,20.9366475 5.10496359,20.9744281 C5.08435597,20.9847319 5.06260349,20.9893114 5.04085101,20.9938908 C5.0202434,20.9984703 4.99849092,20.9996152 4.97673844,20.9996152 C4.92979888,21.0019049 4.87827985,20.9938908 4.83134029,20.9778627 C4.82676082,20.9778627 4.82676082,20.9778627 4.82218135,20.9778627 C2.55534396,20.1432544 1.06472665,18.825512 0.397268976,17.0612714 C-0.628532184,14.3582396 0.589606694,11.3815844 1.15860577,10.2252684 C1.44482262,9.65054498 1.81346991,9.06322802 2.31835642,8.37745247 C5.10496359,4.59366582 5.86172091,0.410320464 5.87087985,0.371394974 C5.89606694,0.208823808 6.01169854,0.0748743257 6.16625563,0.0222104269 C6.31623326,-0.0293086046 6.48338389,0.00961688588 6.5990155,0.119524153 C8.99293316,2.5454981 10.8625016,4.48719315 12.1470428,5.89423515 C13.2816063,7.13527137 14.1975002,8.45644831 14.8695374,9.83143402 C16.2639858,12.6810089 16.4734965,15.1218661 15.4900555,17.0921829" id="Fill-1" fill="#FFFFFF" mask="url(#mask-2)"></path>
            </g>
        </g>
    </g>
</svg>