<?xml version="1.0" encoding="UTF-8"?>
<svg width="19px" height="18px" viewBox="0 0 19 18" version="1.1" xmlns="http://www.w3.org/2000/svg" xmlns:xlink="http://www.w3.org/1999/xlink">
    <title>Group 3 Copy 6</title>
    <defs>
        <polygon id="path-1" points="1.28057924e-16 0 18.2592162 0 18.2592162 18 1.28057924e-16 18"></polygon>
    </defs>
    <g id="Desktop" stroke="none" stroke-width="1" fill="none" fill-rule="evenodd">
        <g id="one-pager-desktop-Design-ALT-5" transform="translate(-561.000000, -4214.000000)">
            <g id="Group-3-Copy-6" transform="translate(561.000000, 4214.000000)">
                <mask id="mask-2" fill="white">
                    <use xlink:href="#path-1"></use>
                </mask>
                <g id="Clip-2"></g>
                <path d="M9.05800124,4.58515943 C11.5244212,4.57986229 13.5759376,6.5322973 13.6024773,8.96598499 C13.629017,11.4005573 11.6190793,13.4096103 9.1526594,13.4149288 C6.68623945,13.4202262 4.68249441,11.4200198 4.65595474,8.98633207 C4.63029972,6.55175973 6.5915813,4.59047816 9.05800124,4.58515943 M7.70270879,0.00619258953 L10.3628683,0 C10.4115244,0 10.5079518,0.047771405 10.5097212,0.143314215 L11.2103684,2.38503163 C11.5500762,2.47968978 11.93844,2.62211934 12.2790325,2.8123203 L14.3464727,1.66226796 C14.3942441,1.61449656 14.4915562,1.66138331 14.5402123,1.70915471 L16.4457606,3.51916017 C16.4953013,3.61381832 16.4961859,3.70936113 16.4961859,3.75713254 L15.3576341,5.81218761 C15.5062563,6.14570279 15.6548784,6.48010262 15.8043852,6.8613892 L18.0841428,7.47710954 C18.1814549,7.52399628 18.230111,7.57176769 18.2309957,7.6673105 L18.2593167,10.2920838 C18.2601893,10.3398552 18.2124179,10.435398 18.1159904,10.4362827 L15.8503873,11.1095056 C15.7088424,11.4439055 15.5672975,11.8260767 15.4257526,12.1604765 L16.6085372,14.2102237 C16.6094219,14.2579951 16.6103065,14.3535379 16.5625351,14.4013093 L14.6967963,16.2670481 C14.6490249,16.3148195 14.5517128,16.3148195 14.5039414,16.3148195 L12.4117308,15.1736137 C12.074677,15.3178125 11.6898518,15.4620114 11.352798,15.6062103 L10.6999221,17.8505817 C10.7008068,17.9461245 10.6043793,17.9938959 10.5557233,17.9938959 L7.89644838,18.0000885 C7.80002091,18.0000885 7.75048019,17.9523171 7.70182413,17.8576589 L7.04894827,15.6150568 C6.66058444,15.4726273 6.31999201,15.3301977 5.98028424,15.1877682 L3.91284399,16.3378205 C3.86507259,16.3387052 3.76776047,16.3387052 3.71910441,16.2909338 L1.81355614,14.4340415 C1.76401543,14.3862701 1.71535936,14.2907273 1.76313077,14.2429559 L2.90168259,12.1879009 C2.70440438,11.8543857 2.55489757,11.4730991 2.45493149,11.1386993 L0.175173882,10.4752075 C0.0778617605,10.4760922 0.0283210442,10.3805494 0.0283210442,10.332778 L1.28057924e-16,7.70800466 C-0.000872592162,7.61246185 0.0468988128,7.56469044 0.143326278,7.51603438 L2.40892939,6.89058284 C2.50181824,6.50929626 2.64336314,6.17401177 2.83267945,5.83961193 L1.6507795,3.7898648 C1.60123879,3.74209339 1.64901019,3.64655058 1.6967816,3.59877918 L3.51474895,1.73392507 C3.61029176,1.68526901 3.70671923,1.6374976 3.75537529,1.68526901 L5.8475859,2.82647479 C6.18375504,2.63450452 6.52080884,2.49030565 6.90651871,2.39387818 L7.51162317,0.149506804 C7.55850992,0.0539639945 7.60628132,0.00619258953 7.70270879,0.00619258953" id="Fill-1" fill="#FFFFFF" mask="url(#mask-2)"></path>
            </g>
        </g>
    </g>
</svg>