<?xml version="1.0" encoding="UTF-8"?>
<svg width="25px" height="14px" viewBox="0 0 25 14" version="1.1" xmlns="http://www.w3.org/2000/svg" xmlns:xlink="http://www.w3.org/1999/xlink">
    <title>Group 13</title>
    <g id="Desktop" stroke="none" stroke-width="1" fill="none" fill-rule="evenodd">
        <g id="one-pager-desktop-Design-ALT-4" transform="translate(-150.000000, -4377.000000)" fill="#FFFFFF">
            <g id="Group-13" transform="translate(150.000000, 4377.000000)">
                <polygon id="Fill-1" points="0.00916908224 11.276443 0.0125650386 14 7.45735043 13.9932081 7.45480346 11.2696511"></polygon>
                <polygon id="Fill-2" points="8.72132539 11.2688021 8.72557034 13.9923591 16.1703557 13.9855672 16.1669598 11.2620102"></polygon>
                <polygon id="Fill-3" points="17.4342458 11.2603971 17.4376418 13.9839541 24.8824271 13.9771622 24.8798802 11.2536052"></polygon>
                <polygon id="Fill-4" points="0 3.67833016 0.00339595639 6.40188718 7.44818134 6.39509527 7.44563438 3.67238724"></polygon>
                <polygon id="Fill-5" points="16.1609319 6.38770906 8.71614656 6.39450098 8.7127506 3.67094395 16.157536 3.66415204"></polygon>
                <polygon id="Fill-6" points="17.4250767 3.66304836 17.4284727 6.38660538 24.8732581 6.37896448 24.8707111 3.65625644"></polygon>
                <polygon id="Fill-7" points="19.5306546 10.1118846 12.0858692 10.1186765 12.0824732 7.39511953 19.5272586 7.38832761"></polygon>
                <polygon id="Fill-8" points="10.6654255 10.1200349 3.21979115 10.1268268 3.21724418 7.40326982 10.6620296 7.39647791"></polygon>
                <polygon id="Fill-9" points="20.9475325 7.38645984 20.9509284 10.1108658 24.878352 10.1066209 24.874956 7.38306388"></polygon>
                <polygon id="Fill-10" points="12.2055766 0.012225443 12.2089726 2.73578246 19.653758 2.72899055 19.650362 0.00543353022"></polygon>
                <polygon id="Fill-11" points="3.33983821 0.0198663449 3.34408315 2.74342337 10.7880196 2.73663145 10.7854726 0.0130744321"></polygon>
                <polygon id="Fill-12" points="24.9979746 0 21.070551 0.00424494548 21.073947 2.72780197 25.0013705 2.72440601"></polygon>
            </g>
        </g>
    </g>
</svg>