<?xml version="1.0" encoding="UTF-8"?>
<svg width="20px" height="19px" viewBox="0 0 20 19" version="1.1" xmlns="http://www.w3.org/2000/svg" xmlns:xlink="http://www.w3.org/1999/xlink">
    <title>Group 3 Copy 7</title>
    <defs>
        <polygon id="path-1" points="0 0 20 0 20 18.2086628 0 18.2086628"></polygon>
    </defs>
    <g id="Desktop" stroke="none" stroke-width="1" fill="none" fill-rule="evenodd">
        <g id="one-pager-desktop-Design-ALT-5" transform="translate(-561.000000, -4455.000000)">
            <g id="Group-3-Copy-7" transform="translate(561.000000, 4455.000000)">
                <mask id="mask-2" fill="white">
                    <use xlink:href="#path-1"></use>
                </mask>
                <g id="Clip-2"></g>
                <path d="M4.55258774,8.05219197 C5.05462692,8.05678729 5.45556896,7.60874317 5.4498248,7.05270894 C5.44408065,6.49552587 5.03279913,6.0417376 4.53075995,6.03712248 C4.02872078,6.03369579 3.62777874,6.48059107 3.63352289,7.03777414 C3.63926705,7.59380837 4.05054857,8.04759664 4.55258774,8.05219197 L4.55258774,8.05219197 Z M9.94520076,2.80777816 C9.94060543,2.39075248 10.242748,2.05414498 10.6184158,2.05759147 L13.7972313,2.08401459 C14.1740479,2.08631225 14.4830835,2.42751507 14.48653,2.84454075 C14.4911253,3.26156643 14.1901315,3.59817393 13.8144638,3.59472744 L10.6344994,3.56830432 C10.2588316,3.56600666 9.94979608,3.22480383 9.94520076,2.80777816 L9.94520076,2.80777816 Z M4.47676489,0.999518061 C4.47102074,0.443483826 4.87196278,-0.00456028927 5.37400195,1.77635684e-15 C6.22069045,0.00692802138 6.98236544,0.441186164 7.48899994,1.11784766 C7.83939342,1.05925728 8.19782871,1.0305365 8.56430582,1.03398299 L13.105635,1.07074559 C16.8680568,1.10176403 19.9549658,4.50919696 19.9997702,8.68290022 C20.035384,11.9720036 18.1696823,14.7556212 15.5342639,15.7711879 L15.5503475,17.2083755 C15.5560917,17.7655586 15.1540008,18.2124539 14.6531105,18.2090272 C14.1510713,18.2044121 13.7397898,17.7506238 13.7340456,17.1934407 L13.7225573,16.1698323 C13.5720604,16.1790229 13.4215636,16.1836182 13.268769,16.1824694 L8.72743983,16.1457068 C8.5746453,16.144558 8.4229996,16.137665 8.27250273,16.1250279 L8.28399104,17.1486363 C8.28973519,17.7058194 7.88764432,18.1527147 7.38675398,18.1492682 C6.8847148,18.1446729 6.47343328,17.6908846 6.4665403,17.1337015 L6.45160549,15.6965139 C4.50778333,14.9222017 2.95571256,13.2081458 2.24803263,11.0552364 L0.952151186,11.0448969 C0.450112011,11.0403016 0.03883049,10.5865133 0.0330863347,10.0304791 L-0.000290552275,7.00790453 C-0.00597392153,6.45072146 0.396116951,6.00382618 0.897007295,6.00727267 L2.19403757,6.01761215 C2.62944454,4.60454994 3.43937044,3.38793784 4.49284853,2.51023091 L4.47676489,0.999518061 Z" id="Fill-1" fill="#FFFFFF" mask="url(#mask-2)"></path>
            </g>
        </g>
    </g>
</svg>