<?xml version="1.0" encoding="UTF-8"?>
<svg width="16px" height="16px" viewBox="0 0 16 16" version="1.1" xmlns="http://www.w3.org/2000/svg" xmlns:xlink="http://www.w3.org/1999/xlink">
    <title>Group 6 Copy 3</title>
    <defs>
        <polygon id="path-1" points="0 0 15.1111111 0 15.1111111 16 0 16"></polygon>
    </defs>
    <g id="Desktop" stroke="none" stroke-width="1" fill="none" fill-rule="evenodd">
        <g id="one-pager-desktop-Design-ALT-5" transform="translate(-731.000000, -4213.000000)">
            <g id="Group-6-Copy-3" transform="translate(731.000000, 4213.000000)">
                <g id="Group-3">
                    <mask id="mask-2" fill="white">
                        <use xlink:href="#path-1"></use>
                    </mask>
                    <g id="Clip-2"></g>
                    <path d="M13.9512554,13.515866 C13.9512554,14.2471543 13.3553096,14.8422812 12.6227301,14.8422812 L2.4884042,14.8422812 C1.75582468,14.8422812 1.1598789,14.2471543 1.1598789,13.515866 L1.1598789,7.6493498 C1.1598789,6.91829306 1.75582468,6.3231661 2.4884042,6.3231661 L12.6227301,6.3231661 C13.3553096,6.3231661 13.9512554,6.91829306 13.9512554,7.6493498 L13.9512554,13.515866 Z M4.17278034,2.99022353 C4.17278034,1.9798971 4.99629436,1.15783456 6.00817271,1.15783456 L9.00692362,1.15783456 C10.018802,1.15783456 10.842316,1.9798971 10.842316,2.99022353 L10.842316,5.16533154 L4.17278034,5.16533154 L4.17278034,2.99022353 Z M12.6227301,5.16533154 L12.0021949,5.16533154 L12.0021949,2.99022353 C12.0021949,1.34146712 10.6585912,0 9.00692362,0 L6.00817271,0 C4.35673713,0 3.01290144,1.34146712 3.01290144,2.99022353 L3.01290144,5.16533154 L2.4884042,5.16533154 C1.11626746,5.16533154 0,6.27963152 0,7.6493498 L0,13.515866 C0,14.8855842 1.11626746,16.0001158 2.4884042,16.0001158 L12.6227301,16.0001158 C13.9948669,16.0001158 15.1111343,14.8855842 15.1111343,13.515866 L15.1111343,7.6493498 C15.1111343,6.27963152 13.9948669,5.16533154 12.6227301,5.16533154 L12.6227301,5.16533154 Z" id="Fill-1" fill="#FFFFFF" mask="url(#mask-2)"></path>
                </g>
                <path d="M7.55566001,11.8232282 C7.39626583,11.8232282 7.26674501,11.6910863 7.26674501,11.5284665 C7.26674501,11.3660598 7.39626583,11.2339178 7.55566001,11.2339178 C7.71484528,11.2339178 7.84436611,11.3660598 7.84436611,11.5284665 C7.84436611,11.6910863 7.71484528,11.8232282 7.55566001,11.8232282 M8.03614049,10.2611828 L8.03614049,8.87774208 C8.03614049,8.63839469 7.84603734,8.44444444 7.61164643,8.44444444 C7.37704661,8.44444444 7.18694347,8.63839469 7.18694347,8.87774208 L7.18694347,10.2223927 C6.63083954,10.3860782 6.22222222,10.9091045 6.22222222,11.5284665 C6.22222222,12.2786916 6.82031597,12.8888889 7.55566001,12.8888889 C8.29100405,12.8888889 8.88888889,12.2786916 8.88888889,11.5284665 C8.88888889,10.9515178 8.53437786,10.4585431 8.03614049,10.2611828" id="Fill-4" fill="#FFFFFF" transform="translate(7.555556, 10.666667) rotate(180.000000) translate(-7.555556, -10.666667) "></path>
            </g>
        </g>
    </g>
</svg>