<?xml version="1.0" encoding="UTF-8"?>
<svg width="20px" height="21px" viewBox="0 0 20 21" version="1.1" xmlns="http://www.w3.org/2000/svg" xmlns:xlink="http://www.w3.org/1999/xlink">
    <title>Group 3</title>
    <defs>
        <polygon id="path-1" points="0 0 19.4608184 0 19.4608184 20.2428713 0 20.2428713"></polygon>
    </defs>
    <g id="Desktop" stroke="none" stroke-width="1" fill="none" fill-rule="evenodd">
        <g id="one-pager-desktop-Design-ALT-5" transform="translate(-153.000000, -4212.000000)">
            <g id="Group-3" transform="translate(153.000000, 4212.000000)">
                <mask id="mask-2" fill="white">
                    <use xlink:href="#path-1"></use>
                </mask>
                <g id="Clip-2"></g>
                <path d="M4.604,2.87690909 C4.066,2.32490909 3.198,2.33390909 2.661,2.89690909 C2.126,3.46290909 2.126,4.36490909 2.661,4.91790909 C3.199,5.47090909 4.067,5.46190909 4.604,4.89790909 C5.14,4.33390909 5.14,3.43090909 4.604,2.87690909 L4.604,2.87690909 Z M12.448,19.7369091 C11.811,20.4019091 10.783,20.4129091 10.15,19.7609091 L1.198,11.1119091 C0.697,10.6279091 0.101,9.70890909 0.058,8.99590909 C-0.057,7.06890909 0.024,3.37490909 0.081,1.41690909 C0.101,0.701909086 0.677,0.0979090863 1.363,0.0749090863 C3.766,-0.00909091366 8.856,-0.123090914 9.329,0.364909086 L19.186,9.54790909 C19.819,10.2009091 19.245,11.8749091 18.608,12.5449091 L12.448,19.7369091 Z" id="Fill-1" fill="#FFFFFF" mask="url(#mask-2)"></path>
            </g>
        </g>
    </g>
</svg>