<?xml version="1.0" encoding="UTF-8"?>
<svg width="21px" height="20px" viewBox="0 0 21 20" version="1.1" xmlns="http://www.w3.org/2000/svg" xmlns:xlink="http://www.w3.org/1999/xlink">
    <title>Group 7 Copy</title>
    <defs>
        <polygon id="path-1" points="-4.57966998e-16 0 20.6178395 0 20.6178395 16.926 -4.57966998e-16 16.926"></polygon>
        <polygon id="path-3" points="-1.77635684e-15 1.77635684e-15 8.723 1.77635684e-15 8.723 2.1118 -1.77635684e-15 2.1118"></polygon>
    </defs>
    <g id="Desktop" stroke="none" stroke-width="1" fill="none" fill-rule="evenodd">
        <g id="one-pager-desktop-Design-ALT-5" transform="translate(-561.000000, -4132.000000)">
            <g id="Group-7-Copy" transform="translate(561.000000, 4132.000000)">
                <g id="Group-3">
                    <mask id="mask-2" fill="white">
                        <use xlink:href="#path-1"></use>
                    </mask>
                    <g id="Clip-2"></g>
                    <path d="M17.7238395,6.635 C17.0718395,7.329 16.2698395,7.948 15.3958395,8.455 C15.9918395,6.767 16.3028395,4.867 16.4258395,3.048 C17.0348395,2.628 17.7758395,2.415 18.3468395,2.55 C18.7788395,2.653 19.0318395,2.936 19.1398395,3.443 C19.3238395,4.301 18.7948395,5.494 17.7238395,6.635 M2.94183948,6.704 C1.85183948,5.573 1.30283948,4.385 1.47283948,3.525 C1.57183948,3.017 1.81983948,2.732 2.24983948,2.625 C2.81883948,2.483 3.56383948,2.69 4.17883948,3.104 C4.33383948,4.922 4.67583948,6.82 5.30083948,8.502 C4.41783948,8.003 3.60583948,7.392 2.94183948,6.704 M18.6438395,1.001 C17.9778395,0.842 17.2108395,0.949 16.4908395,1.252 C16.4938395,0.822 16.4878395,0.402 16.4738395,0 L10.2768395,0.028 L4.07983948,0.057 C4.07283948,0.46 4.07383948,0.88 4.08383948,1.31 C3.35883948,1.013 2.58983948,0.913 1.92683948,1.078 C0.944839484,1.321 0.283839484,2.068 0.0648394839,3.18 C-0.222160516,4.632 0.449839484,6.292 1.95683948,7.855 C3.14483948,9.086 4.73283948,10.108 6.40583948,10.736 C7.10583948,11.805 7.99783948,12.665 9.12483948,13.185 C8.96683948,13.844 8.40783948,15.753 7.02983948,16.926 L10.4198395,16.91 L13.8088395,16.895 C12.4108395,15.734 11.8208395,13.831 11.6518395,13.173 C12.7698395,12.643 13.6468395,11.775 14.3288395,10.699 C15.9908395,10.056 17.5618395,9.019 18.7278395,7.777 C20.2088395,6.2 20.8528395,4.534 20.5418395,3.085 C20.3028395,1.975 19.6298395,1.234 18.6438395,1.001" id="Fill-1" fill="#005A71" mask="url(#mask-2)"></path>
                </g>
                <g id="Group-6" transform="translate(6.075239, 17.890500)">
                    <mask id="mask-4" fill="white">
                        <use xlink:href="#path-3"></use>
                    </mask>
                    <g id="Clip-5"></g>
                    <polygon id="Fill-4" fill="#005A71" mask="url(#mask-4)" points="-1.77635684e-15 0.04 8.705 1.77635684e-15 8.723 2.071 0.018 2.112"></polygon>
                </g>
            </g>
        </g>
    </g>
</svg>