<?xml version="1.0" encoding="UTF-8"?>
<svg width="20px" height="17px" viewBox="0 0 20 17" version="1.1" xmlns="http://www.w3.org/2000/svg" xmlns:xlink="http://www.w3.org/1999/xlink">
    <title>Group 3</title>
    <defs>
        <polygon id="path-1" points="0 0 20 0 20 16.37786 0 16.37786"></polygon>
    </defs>
    <g id="Desktop" stroke="none" stroke-width="1" fill="none" fill-rule="evenodd">
        <g id="one-pager-desktop-Design" transform="translate(-428.000000, -8826.000000)">
            <g id="Group-3" transform="translate(428.000000, 8826.000000)">
                <mask id="mask-2" fill="white">
                    <use xlink:href="#path-1"></use>
                </mask>
                <g id="Clip-2"></g>
                <path d="M16.2880313,10.7204249 C16.1639923,10.9127142 16.0397615,11.1050034 15.9157225,11.2972927 C15.9061368,11.3040027 15.8986599,11.3126298 15.8931002,11.3229824 C15.8906079,11.3323764 15.8881156,11.3417704 15.8854316,11.3513561 C15.8618508,11.4355186 15.812772,11.5020434 15.7431798,11.5541896 L15.7429881,11.5541896 C15.7339775,11.5624333 15.7257338,11.5716356 15.7186404,11.5817965 C15.7148061,11.5892733 15.7126972,11.5971336 15.7123138,11.605569 C15.7057955,11.6191807 15.6960181,11.6303001 15.6839401,11.6395024 L15.6848987,11.6385438 C15.676655,11.6494715 15.6663024,11.6584821 15.6576753,11.6692181 L15.6571001,11.6696015 C15.6477061,11.6774618 15.6396541,11.6862806 15.6329442,11.6966332 C15.621633,11.7152295 15.6101302,11.7340175 15.598819,11.7526137 C15.5900002,11.763158 15.5809896,11.7735106 15.5723625,11.7842466 L15.5721708,11.7850134 C15.4584843,12.0075935 15.3056882,12.1991159 15.1145492,12.359964 C15.0196507,12.4763345 14.8942697,12.5666319 14.8204597,12.7012152 C14.8185426,12.7432006 14.7897855,12.7698488 14.7637124,12.7972639 C14.2320891,13.3549603 13.658097,13.8637696 13.0267825,14.3066292 C12.3481145,14.782847 11.6284197,15.1835295 10.8592627,15.4944898 C10.3981902,15.6881211 9.92408121,15.8422592 9.44076992,15.9684071 C9.41968137,15.9747337 9.3984011,15.9791431 9.37692912,15.9831691 C9.34817201,15.987962 9.3209486,15.9979311 9.29295834,16.0055997 C9.08360653,16.0579376 8.87367957,16.1072082 8.66068519,16.1432504 C8.63863806,16.149577 8.6160158,16.1534113 8.59320182,16.156287 C8.55313357,16.1582041 8.51594103,16.1733495 8.47721478,16.1815932 C7.87350703,16.2824349 7.26692356,16.3539442 6.65401354,16.3610376 C6.56965932,16.3491514 6.48798911,16.3876859 6.4036349,16.3754162 C6.25754874,16.3403325 6.1103123,16.3729239 5.963651,16.3679394 C5.6268093,16.3564365 5.29092617,16.332664 4.9558099,16.2989223 C4.71482525,16.2613463 4.47173175,16.2362318 4.23170568,16.1909872 C3.84252603,16.1148767 3.45257951,16.0414502 3.07298556,15.9243129 C3.02198961,15.9032243 2.96811794,15.8915298 2.91558827,15.8754258 C2.89737543,15.8702495 2.87954602,15.8639229 2.86190832,15.8570212 C2.8344932,15.8455184 2.80650294,15.8349741 2.77774583,15.8269221 C2.76585955,15.8238547 2.75454842,15.8198287 2.74304557,15.8159944 C2.71869788,15.8087093 2.69377504,15.8052584 2.66885221,15.8006573 C2.13857096,15.632524 1.62266828,15.4289236 1.124595,15.1814207 C1.1082993,15.1727936 1.09277046,15.1626327 1.07685819,15.1534304 C1.06708077,15.1484459 1.05749506,15.1426944 1.04790936,15.1367513 C1.03448937,15.1290827 1.0212611,15.1204556 1.00745768,15.1133622 C0.998255402,15.1093362 0.989436552,15.1045433 0.980809417,15.0997505 C0.967964571,15.0924653 0.954928011,15.0853719 0.941316309,15.0792371 C0.931922317,15.0755945 0.922911754,15.0709934 0.913901191,15.0663922 C0.904507199,15.0621745 0.895496635,15.0573817 0.886486072,15.0529722 C0.876900366,15.0489462 0.867889803,15.0441534 0.858687525,15.0393605 C0.849293533,15.0349511 0.84028297,15.0301583 0.831080692,15.0255571 C0.821494987,15.0213394 0.812292709,15.0165466 0.803282146,15.011562 C0.789095301,15.0046603 0.775100171,14.9977586 0.760529898,14.9912403 C0.75036905,14.9872143 0.74059163,14.9824214 0.731005924,14.9774369 C0.711451084,14.9670843 0.692279673,14.9561566 0.673683403,14.9438869 C0.664097698,14.9379438 0.655087134,14.9312338 0.645884857,14.9247155 C0.622495734,14.9078446 0.596614329,14.8959584 0.570157781,14.8844555 C0.55846322,14.8800461 0.547343801,14.8746781 0.536032668,14.8693101 C0.517628113,14.8612581 0.499415272,14.8532061 0.481010717,14.8447707 C0.467015586,14.839211 0.454170741,14.832501 0.440942467,14.8252159 C0.315753149,14.7552402 0.196315255,14.6760623 0.0717010794,14.6053198 C0.0406433926,14.5876821 -0.0107359905,14.5798218 0.00191714116,14.529401 C0.014953701,14.4776382 0.0674833688,14.473037 0.108318475,14.4791719 C0.269741761,14.5031362 0.435191043,14.4805139 0.593738617,14.5067787 C0.929430034,14.5627592 1.26262917,14.5125301 1.59391116,14.4902913 C2.23883745,14.4471556 2.87091889,14.3169817 3.48708805,14.1174073 C4.37779184,13.8294527 5.19526083,13.4019303 5.94007017,12.8212282 C5.56661107,12.7961137 5.20427139,12.7276717 4.84979199,12.618203 C4.83004544,12.611493 4.81068231,12.6036327 4.79093576,12.596731 C4.77751577,12.5930884 4.76428749,12.588679 4.75125093,12.5840779 C3.77082495,12.2297902 3.0313836,11.588123 2.50206093,10.6960772 C2.38511532,10.5080057 2.30593739,10.3024882 2.22810146,10.0969706 C2.17154579,9.94762533 2.19896091,9.91350022 2.35597477,9.93171306 C2.88568087,9.99306157 3.41231955,9.99325329 3.93914994,9.86250426 C3.14698721,9.68075928 2.47732981,9.29407191 1.9081306,8.72736498 C1.85023293,8.66965903 1.79808669,8.60773537 1.74996645,8.54255257 C1.7411476,8.53277515 1.73309561,8.52223088 1.72504361,8.51187831 C1.71660819,8.50267604 1.70874792,8.4927069 1.70088764,8.4831212 C1.69666993,8.47871177 1.69283564,8.47391892 1.68861793,8.46931778 C1.68018251,8.46088236 1.67213052,8.4518718 1.66388681,8.44286123 C1.65986082,8.43864352 1.65583482,8.43404238 1.65180882,8.42963296 C1.6433734,8.42081411 1.63608827,8.4112284 1.62918656,8.40125927 C1.62190142,8.39129014 1.61538314,8.38093757 1.60867315,8.37058501 C1.59697859,8.35505617 1.58451717,8.34048589 1.57167232,8.32572391 C1.18268438,7.82956778 0.941316309,7.26592827 0.807116428,6.65320996 C0.802515289,6.61697599 0.795421867,6.58131717 0.784685876,6.5464252 C0.777017312,6.51632608 0.772607887,6.48584354 0.771457602,6.45497756 C0.731581066,6.29278742 0.750560764,6.12465414 0.718352792,5.96131372 C0.706658231,5.90284091 0.707616802,5.8361244 0.770690746,5.79567272 C0.785644447,5.79011301 0.801365005,5.78781244 0.817277276,5.78838758 C0.840091256,5.79087987 0.861371523,5.79854843 0.882076647,5.80813414 C1.01244225,5.87427551 1.14261613,5.94118373 1.28160886,5.98892055 C1.66944652,6.15168583 2.07722245,6.22415377 2.50186921,6.2557866 C1.79214356,5.7423762 1.30461456,5.06505022 0.994804547,4.25467466 C0.83280612,3.80893934 0.758996185,3.34825032 0.758421043,2.87490816 C0.765514465,2.82257021 0.776442169,2.77042397 0.772991315,2.71693573 C0.772224459,2.69469689 0.772799601,2.67245806 0.773374744,2.65021922 C0.773758172,2.61360182 0.773758172,2.57717614 0.773949886,2.54055875 C0.774333314,2.49684793 0.775100171,2.45332882 0.784494162,2.41057658 C0.788711873,2.38929631 0.795230153,2.3687829 0.799256149,2.34750263 C0.800981576,2.32545551 0.801556719,2.3036001 0.803090432,2.28136126 C0.81976956,2.14102653 0.851977531,2.00375922 0.882268361,1.86610849 C0.893196066,1.81568767 0.905657484,1.7645 0.953394298,1.73305889 C0.955503154,1.72443175 0.95627001,1.71580462 0.955694868,1.70698577 C0.971798854,1.69049836 0.96604743,1.66442524 0.981767988,1.64774611 C1.06113763,1.39430005 1.17003125,1.15350712 1.29196143,0.918082183 C1.31209141,0.879355931 1.33011254,0.840054538 1.38455935,0.846381103 C1.44207358,0.855583381 1.46105328,0.906962764 1.49287782,0.944347017 C1.5007381,0.95335758 1.50802324,0.962943286 1.5156918,0.972337278 C1.52393551,0.980964413 1.53179579,0.989974976 1.53984778,0.99898554 C1.5442572,1.00301154 1.5482832,1.00742096 1.55269262,1.01163867 C1.5618949,1.01988238 1.57052204,1.0283178 1.57934089,1.03713665 C1.58394203,1.04135436 1.58815974,1.0459555 1.59276087,1.05017321 C1.60215487,1.05937549 1.61059029,1.06896119 1.61864228,1.07912204 C1.88627519,1.37685406 2.15525009,1.67151866 2.45202354,1.94298585 C2.82241521,2.28212812 3.21006116,2.59711441 3.6126608,2.89542157 C3.68570388,2.94948495 3.7620061,2.99856377 3.8367746,3.04975144 C3.87396714,3.07544113 3.91096796,3.10132253 3.94988593,3.12451994 C4.0024156,3.1619042 4.05532869,3.19852159 4.11035065,3.23207156 C4.35938728,3.40001313 4.62318591,3.54303186 4.88506739,3.68873459 C4.90366366,3.69774515 4.92206821,3.70694743 4.9408562,3.71595799 C4.95408447,3.72132599 4.96692932,3.72765255 4.97958245,3.73397912 C5.90345277,4.21978269 6.87026706,4.58787379 7.89267844,4.80489417 C8.43752996,4.9343012 8.99081689,5.0104117 9.54812983,5.04932967 C9.84969613,5.07041822 9.78777247,5.06773422 9.75153851,4.82310701 C9.5952915,3.76829594 9.79831675,2.79170424 10.3817028,1.89678274 C10.4415176,1.82067224 10.4974981,1.74091917 10.5582715,1.66519209 C10.5653649,1.65637324 10.5734169,1.64793782 10.5814689,1.63969412 C10.5958475,1.62378184 10.6073503,1.605569 10.618278,1.58697273 C10.6265217,1.57374446 10.6366826,1.5620499 10.6472269,1.55073877 C10.6539368,1.5430702 10.6610303,1.53597678 10.6683154,1.52907507 C10.6717663,1.5254325 10.6756005,1.52217336 10.6790514,1.51853079 C10.6859531,1.51143737 10.6932382,1.50453566 10.7003317,1.49782567 C10.7037825,1.49437482 10.7074251,1.49092396 10.7108759,1.48747311 C10.7173942,1.47980454 10.7242959,1.47271112 10.7308142,1.46504256 C10.7334982,1.46082484 10.7365656,1.45699056 10.7394413,1.45258114 C10.7444259,1.44337886 10.7496022,1.4343683 10.7547785,1.42497431 C10.7599548,1.41500517 10.7658979,1.40561118 10.7724162,1.39660062 C10.7831522,1.38203034 10.7948467,1.36861036 10.8071164,1.3555738 C10.9301969,1.23230162 11.0463756,1.10174431 11.1880524,0.998602111 C11.2231361,0.967352711 11.255344,0.933419312 11.2931117,0.905237337 C11.5325626,0.724834354 11.7875424,0.568970778 12.0547919,0.433237184 C12.5331186,0.189376828 13.0455704,0.0739649304 13.5764268,0.0287203991 C13.7462855,0.0143418404 13.9161442,-0.0257264099 14.0867698,0.0246944026 C14.2687065,0.0371558202 14.4498763,0.0569023741 14.6285539,0.0939031985 C14.6645962,0.102530334 14.6994881,0.115950322 14.7368724,0.119017748 C14.7922778,0.129753738 14.8467246,0.144899153 14.9017465,0.157935713 C14.9283948,0.16522085 14.955043,0.173081128 14.9822664,0.178640838 C15.2265102,0.252259058 15.4699872,0.328177848 15.695443,0.450683168 C15.7067541,0.455859449 15.7176818,0.462186015 15.7284178,0.468512581 C15.7435632,0.47733143 15.7585169,0.486917136 15.773854,0.495544271 C15.7838232,0.500337124 15.7936006,0.505896834 15.8031863,0.511264829 C15.8175648,0.519125108 15.8319434,0.526985386 15.8467054,0.534270523 C15.8566745,0.538871661 15.8660685,0.544623085 15.8754625,0.550757937 C15.8848565,0.556701074 15.8938671,0.563411068 15.9028776,0.569929348 C15.9078622,0.572996774 15.9124633,0.576255914 15.9172562,0.579131626 C15.9278005,0.584499621 15.9379613,0.590251045 15.9483139,0.595810754 C16.0152221,0.628977296 16.0746535,0.674221827 16.1415617,0.707004941 C16.3434367,0.841779965 16.5393685,0.986524122 16.7065432,1.16117568 C16.8459194,1.3066867 16.9931558,1.32509125 17.1672322,1.25530731 C17.1856368,1.2497476 17.2046165,1.24591332 17.2237879,1.2428459 C17.2483273,1.23843647 17.272675,1.23268505 17.2966393,1.22463305 C17.3148521,1.21868992 17.3336401,1.21447221 17.3524281,1.21044621 C17.3785012,1.20431136 17.4038074,1.19587594 17.4294971,1.18820737 C17.9728149,1.04538036 18.4891011,0.833152829 18.9917755,0.585458192 C19.150323,0.534462237 19.2680355,0.395852931 19.4409616,0.375339521 C19.4954084,0.422309479 19.4608999,0.474647433 19.4501639,0.525835102 C19.4463296,0.538296519 19.4411534,0.550566223 19.4357854,0.562452498 C19.4279251,0.580090196 19.4194897,0.597727895 19.4118211,0.615557308 C19.3778877,0.712948079 19.3322597,0.805162568 19.2850981,0.896226774 C19.2803052,0.90677105 19.2743621,0.916931898 19.2682272,0.926709318 C19.2599835,0.940704448 19.2513564,0.954507865 19.2434961,0.968694709 C19.2392784,0.977705273 19.2341021,0.986332408 19.2289258,0.994959543 C19.2220241,1.00742096 19.2153141,1.02026581 19.2091793,1.03330237 C19.2059201,1.0419295 19.2015107,1.05036492 19.1967179,1.0582252 C19.1926919,1.06666062 19.1884741,1.07490433 19.1842564,1.08314804 C19.1808056,1.09177517 19.1763962,1.10001888 19.1716033,1.10807087 C19.1648933,1.12053229 19.158375,1.13318542 19.1522402,1.14603027 C19.1484059,1.15523254 19.1434213,1.16385968 19.1380533,1.17210339 C19.1292345,1.18475652 19.1200322,1.19702622 19.1115968,1.21006278 C19.1002857,1.22980934 19.0914668,1.25051446 19.0809225,1.27083616 C19.031652,1.35576551 18.9789306,1.43820258 18.9185407,1.51507994 C18.9112555,1.52428222 18.9032035,1.53310107 18.895535,1.5417282 C18.8890167,1.55054705 18.8819233,1.5593659 18.8755967,1.56837646 C18.8702287,1.57757874 18.8640939,1.5865893 18.8577673,1.59540815 C18.8518242,1.604227 18.8449225,1.612279 18.837829,1.61994756 C18.8343782,1.62378184 18.8305439,1.62742441 18.827093,1.63125869 C18.8201913,1.63873554 18.8127145,1.64582897 18.8052376,1.65273067 C18.8017868,1.65637324 18.7979525,1.6598241 18.7945016,1.66365838 C18.7877916,1.67132694 18.7808899,1.67861208 18.7741799,1.68628065 C18.7714959,1.69069007 18.7682368,1.69471607 18.7653611,1.69912549 C18.7603765,1.70851948 18.7550085,1.71753005 18.7496405,1.72692404 C18.7444643,1.73708489 18.7385211,1.74647888 18.7318111,1.75568116 C18.7249094,1.76526686 18.7172409,1.77427742 18.7091889,1.78309627 C18.7051629,1.78769741 18.7007534,1.79191512 18.6967274,1.79651626 C18.6024041,1.89237332 18.5055885,1.98554638 18.4145243,2.08447086 C18.230287,2.27963583 18.0151838,2.43626627 17.7920285,2.58388614 C18.2889515,2.51486905 18.7768639,2.40386658 19.2532735,2.24301844 C19.338778,2.2180956 19.4221737,2.1868462 19.507103,2.16038965 C19.5686432,2.14256024 19.6296083,2.12262197 19.6873143,2.09444 C19.6986254,2.089072 19.7105117,2.08504601 19.722398,2.08121172 C19.7396522,2.0754603 19.7572899,2.07009231 19.7745442,2.06338231 C19.7801039,2.06069831 19.7856636,2.05839774 19.791415,2.05571375 C19.8025345,2.04977061 19.8138456,2.04478604 19.8253484,2.03960976 C19.8727018,2.02043835 19.9169878,1.98688838 19.9729683,2.00567636 C20.0306743,2.05264632 19.9814037,2.09194771 19.9599317,2.12779825 C19.9014589,2.22538074 19.830333,2.3145278 19.7607408,2.40425001 C19.671402,2.52253762 19.5743947,2.63469038 19.485631,2.75336141 C19.4779625,2.76390569 19.4697188,2.7734914 19.4608999,2.7830771 C19.4526562,2.79285452 19.4436456,2.8020568 19.4344434,2.81125908 C19.4300339,2.81605193 19.4254328,2.82046135 19.4210234,2.82525421 C19.4123962,2.83503163 19.4030022,2.84423391 19.3938,2.85343618 C19.2511647,3.0301966 19.0889745,3.18816903 18.9285098,3.34767517 C18.919691,3.35745259 18.910297,3.36665487 18.9007113,3.37566543 C18.8961101,3.38045829 18.8913173,3.38486771 18.8867161,3.38966057 C18.8778973,3.39924627 18.8685033,3.40844855 18.8591093,3.41765083 C18.8545082,3.42244368 18.8497153,3.4268531 18.8451142,3.43164596 C18.6572343,3.59786209 18.4699296,3.76484509 18.2713138,3.91821638 C18.2573187,3.93125294 18.242365,3.94313922 18.2270279,3.95425864 C18.2170587,3.96154377 18.2065144,3.96825377 18.1959702,3.97477205 C18.186001,3.98205718 18.1758402,3.98915061 18.1656793,3.99662746 C18.1608865,4.00084517 18.1559019,4.00467945 18.1511091,4.00889716 C18.0738483,4.06353568 17.9977378,4.11855763 18.0199766,4.23186068 C18.0209352,4.26291836 18.0245777,4.29397605 18.0240026,4.32522545 C18.0124998,4.55719953 17.9781829,4.78610619 18.0199766,5.02133941 C18.0460497,5.1680007 18.0259197,5.32539799 17.9569027,5.46726644 C17.915109,5.87849322 17.8740822,6.28933657 17.792412,6.69557878 C17.7692145,6.81137411 17.733364,6.92601915 17.7272292,7.04526533 C17.7686394,7.17486407 17.6978969,7.2893174 17.6781503,7.41048072 C17.6750829,7.4319527 17.6693315,7.45284954 17.6630049,7.47355466 C17.6543778,7.50077807 17.6472844,7.5283849 17.6413412,7.55618345 C17.5665727,7.81097151 17.5015816,8.06882699 17.4109009,8.31863049 C17.4016986,8.34432018 17.3915377,8.36981815 17.3831023,8.39569956 C17.3796515,8.40873612 17.3750503,8.42119754 17.3704492,8.43365895 C17.3512778,8.48292948 17.3357489,8.53354201 17.3204118,8.58434625 C17.2640479,8.73733411 17.2078756,8.89051369 17.148636,9.04254299 C17.1415425,9.0617144 17.1327237,9.08031067 17.1240965,9.09871522 C17.1189203,9.11136835 17.1127854,9.12363806 17.1066506,9.13571605 C17.0207626,9.34315072 16.9258642,9.5465594 16.8359502,9.75207693 C16.7379843,9.98136701 16.5986082,10.1891851 16.4937405,10.4148326 C16.4759111,10.4458903 16.4517551,10.4727303 16.4333506,10.5035963 C16.4279826,10.5133737 16.4220395,10.5229594 16.4160963,10.5323534 C16.4111118,10.5423225 16.4057438,10.5520999 16.4005675,10.5618774 C16.3959663,10.5722299 16.3905983,10.5821991 16.3852303,10.5921682 C16.3771784,10.6078887 16.3687429,10.6232259 16.3599241,10.6383713 C16.3397941,10.6690455 16.323115,10.7029789 16.2880313,10.7204249" id="Fill-1" fill="#022B3D" mask="url(#mask-2)"></path>
            </g>
        </g>
    </g>
</svg>