<?xml version="1.0" encoding="UTF-8"?>
<svg width="21px" height="18px" viewBox="0 0 21 18" version="1.1" xmlns="http://www.w3.org/2000/svg" xmlns:xlink="http://www.w3.org/1999/xlink">
    <title>Group 3</title>
    <defs>
        <polygon id="path-1" points="0 0 20 0 20 17.8991976 0 17.8991976"></polygon>
    </defs>
    <g id="Desktop" stroke="none" stroke-width="1" fill="none" fill-rule="evenodd">
        <g id="one-pager-desktop-Design" transform="translate(-893.000000, -418.000000)">
            <g id="Group-3" transform="translate(893.500000, 418.000000)">
                <mask id="mask-2" fill="white">
                    <use xlink:href="#path-1"></use>
                </mask>
                <g id="Clip-2"></g>
                <path d="M14.7271071,11.6119781 C14.6975839,11.6532323 14.6682563,11.694682 14.6236783,11.7218589 C14.609992,11.7277245 14.5990431,11.7369138 14.5914179,11.7498179 C14.5798823,11.7566611 14.5704975,11.7658504 14.5638499,11.7775814 C14.5640454,11.777777 14.5642409,11.7779725 14.564632,11.7779725 L14.564632,11.7779725 C14.3460433,12.0341005 14.0672353,12.1774149 13.7352464,12.2206243 C13.7190185,12.228445 13.7035726,12.2415446 13.6867581,12.2431088 C13.2566194,12.2835809 12.8546353,12.2088932 12.5058319,11.9379059 C12.3042533,11.7811008 12.1415827,11.5896891 12.0299421,11.3581962 C12.0182111,11.3341476 12.0156694,11.305602 12.0088262,11.2792071 C12.0088262,11.2792071 12.0088262,11.2792071 12.0088262,11.2790116 C11.9521261,11.2078432 11.9407861,11.1196648 11.9204523,11.0353967 C11.8152638,10.5990015 11.9087212,10.1974084 12.1357171,9.82005949 C12.1517496,9.79327358 12.1789265,9.77293976 12.2008245,9.74967317 C12.2008245,9.74967317 12.20102,9.74967317 12.20102,9.74967317 C12.2868522,9.60518568 12.4106149,9.49667343 12.5410251,9.39480877 L12.5410251,9.39480877 C12.5410251,9.39480877 12.5418071,9.39441773 12.5418071,9.39441773 C12.5523651,9.37271528 12.5717213,9.3650901 12.5938148,9.3617663 C12.5938148,9.3617663 12.5938148,9.3617663 12.5938148,9.3617663 C12.7635241,9.21962502 12.969013,9.16194734 13.1791944,9.11873796 C13.2947453,9.09508033 13.4126424,9.08119858 13.5319081,9.08941032 C13.563582,9.09175653 13.5964289,9.08765066 13.6206731,9.1148276 C13.9645885,9.13750764 14.2613842,9.26400751 14.5055857,9.51075069 C14.6354093,9.6421385 14.7675792,9.77098458 14.8393342,9.94655936 C14.9286857,10.0734503 14.9709175,10.220284 14.9992675,10.3684863 C15.0860773,10.8203274 14.9965303,11.2365843 14.7271071,11.6119781 M13.7512789,14.8149469 C13.6742449,14.9009747 13.5884127,14.9780086 13.4945643,15.0450711 C13.2554463,15.2163445 13.0225849,15.3979804 12.7367382,15.4894826 C12.7367382,15.4894826 12.7367382,15.4894826 12.7367382,15.4894826 C12.7152312,15.5184192 12.6829708,15.5172461 12.6522746,15.5197878 C12.6151262,15.5565451 12.5664424,15.5735551 12.5195181,15.5905652 C12.1744296,15.7160874 11.8191742,15.8042659 11.4588353,15.8732836 C11.4410432,15.8768029 11.4222735,15.8744567 11.4038949,15.8748477 C11.3489544,15.8865788 11.2959692,15.9110185 11.2377049,15.9018291 C11.2201083,15.9026112 11.2023163,15.9033933 11.1845242,15.9041754 C11.1655589,15.911605 11.1479624,15.9159064 11.1317344,15.9176661 C11.0214625,15.9456251 10.9084533,15.9542279 10.7948576,15.9573561 C10.776479,15.9575517 10.7579048,15.9575517 10.7395262,15.9577472 C10.6394212,15.9823824 10.5381431,15.9913762 10.4353008,15.984142 C10.4353008,15.9843376 10.4353008,15.9843376 10.4353008,15.9843376 C10.342821,15.9845331 10.2501457,15.9849241 10.1574703,15.9851196 C9.91835234,15.9851196 9.67806125,15.9982193 9.44031188,15.9796451 C9.31029269,15.9694782 9.17499453,15.9800362 9.04790811,15.9352626 C9.04790811,15.9352626 9.04790811,15.9352626 9.04790811,15.9352626 C9.02992049,15.9336985 9.01212839,15.9321344 8.99414077,15.9305702 C8.97067866,15.9319388 8.95171346,15.9241181 8.93900482,15.9035888 L8.93900482,15.9035888 C8.91906202,15.910823 8.89911923,15.9178616 8.87917644,15.9249002 L8.87917644,15.9249002 C8.8564964,15.9293971 8.83889982,15.9217719 8.82560462,15.9028067 C8.82560462,15.9028067 8.82560462,15.9028067 8.82560462,15.9026112 C8.82560462,15.9028067 8.82560462,15.9028067 8.82560462,15.9028067 C8.69089302,15.9118005 8.562829,15.8725015 8.43300534,15.8478663 C8.14930934,15.794099 7.87011024,15.7229306 7.59794978,15.6263449 C7.58133078,15.6204794 7.56647145,15.6089438 7.55102556,15.6001455 L7.55102556,15.6001455 C7.30917032,15.5367978 7.09155926,15.4196828 6.87746752,15.2955291 C6.82252708,15.2638553 6.77384321,15.2212325 6.72222657,15.1834976 C6.60648016,15.1293392 6.51204517,15.0464398 6.41956536,14.9608031 C6.28856859,14.8601115 6.17008494,14.7525768 6.15952699,14.5695724 C6.15678974,14.5230392 6.16949838,14.4806119 6.17086701,14.4360339 L6.17086701,14.4360339 C6.2598275,14.1415844 6.55290835,14.0406974 6.79886945,14.2192049 C6.98030976,14.3507882 7.14884591,14.5009457 7.34983798,14.604179 C7.45561298,14.6583374 7.56197454,14.7113226 7.66794507,14.7648945 C7.66794507,14.7648945 7.66794507,14.7648945 7.66794507,14.7648945 C7.72855552,14.7662631 7.77880353,14.7965683 7.83002914,14.8237452 L7.83002914,14.8237452 C7.83002914,14.8237452 7.83002914,14.8237452 7.83002914,14.8237452 C8.13972898,14.9189623 8.45197054,15.0022528 8.77164177,15.0593439 C8.83714016,15.071075 8.9110458,15.0497636 8.96950556,15.0984474 C8.96950556,15.0984474 8.96950556,15.0984474 8.96950556,15.0984474 C9.13745515,15.1027488 9.30384061,15.1211275 9.46885744,15.1522148 L9.46885744,15.1522148 C9.54158998,15.1537789 9.61451803,15.155343 9.68725057,15.1569072 L9.68725057,15.1569072 C10.0657726,15.154952 10.4446857,15.166292 10.8222301,15.1236692 L10.8222301,15.1236692 C10.8628977,15.0843702 10.9147099,15.1068547 10.960852,15.0984474 L10.960852,15.0984474 C11.0015197,15.054847 11.0539184,15.077136 11.1018202,15.0734212 L11.1018202,15.0734212 L11.1018202,15.0734212 C11.399398,15.0384235 11.6897416,14.9705789 11.9761748,14.8837691 C12.0244676,14.8691053 12.0739336,14.8589384 12.1230085,14.8468163 C12.2070811,14.8108411 12.2905671,14.7734972 12.3754217,14.7390861 C12.668307,14.6200159 12.9318647,14.4555856 13.1641396,14.2399298 C13.3338488,14.0825381 13.5659282,14.0970064 13.736224,14.253225 C13.8846218,14.3891097 13.8932246,14.6561867 13.7512789,14.8149469 M5.61520606,11.9414252 C5.53641248,11.8814013 5.44608336,11.8346726 5.39329362,11.745321 C5.06834341,11.400037 4.94047492,10.9847577 4.98153361,10.5200124 C5.00128088,10.2963403 5.06501961,10.0791203 5.19777604,9.89005478 L5.19777604,9.89005478 C5.38781912,9.56901493 5.63866817,9.31875243 6.00213534,9.19987775 C6.20566914,9.11385002 6.41936984,9.08549997 6.63854504,9.08980135 C6.66200715,9.09038791 6.68312305,9.09664447 6.70013308,9.11345898 C6.77325665,9.11658726 6.84813988,9.10622483 6.91618,9.14454628 C7.11208861,9.18286772 7.29352892,9.25325405 7.44544607,9.38757462 C7.44544607,9.38757462 7.44544607,9.38757462 7.44544607,9.38777014 C7.62903707,9.51211931 7.78017216,9.66677371 7.88614268,9.86307336 C7.90764962,9.87539097 7.9141017,9.89552928 7.9152748,9.91840483 C7.9152748,9.91840483 7.9152748,9.91840483 7.91547032,9.91820931 C7.91547032,9.91820931 7.91547032,9.91820931 7.91547032,9.91820931 C7.94479795,9.93932521 7.95516039,9.97197665 7.96689144,10.0036505 L7.96689144,10.0036505 C7.96962869,10.0108846 7.97080179,10.0183143 7.97021524,10.0259395 C7.97588525,10.0378661 7.98527009,10.0470554 7.99348183,10.0572223 C7.99641459,10.0656296 7.99778322,10.0740368 7.99778322,10.0830306 C7.99778322,10.0830306 7.99778322,10.0830306 7.99778322,10.0830306 C8.01811704,10.0969124 8.02398257,10.1172462 8.02280947,10.1405128 C8.02535119,10.148529 8.0265243,10.1567408 8.02593775,10.1649525 C8.02613326,10.1649525 8.02613326,10.1649525 8.02613326,10.165148 C8.04666261,10.1794208 8.05194158,10.2001457 8.050964,10.2238033 C8.05311469,10.2318195 8.05409228,10.2400312 8.05370124,10.2484385 C8.1154848,10.4316385 8.13620966,10.6160115 8.11704894,10.8119201 C8.09593304,11.0269895 8.04588054,11.2293502 7.9408876,11.4150919 C7.64194123,11.9443579 7.19557461,12.234506 6.57773908,12.2497564 C6.21876881,12.2587502 5.8992931,12.1590362 5.61520606,11.9414252 M19.1790422,7.37002878 C19.1768915,7.36201256 19.1776736,7.35399633 19.1774781,7.34598011 C19.1720036,7.34461149 19.1665291,7.34343839 19.1616412,7.34050562 C19.0959473,7.29553658 19.0302534,7.25056754 18.9645594,7.20540298 L18.9645594,7.20540298 C18.7801864,7.11390075 18.5934671,7.03041475 18.392475,6.97821156 C17.9730898,6.86911275 17.5601567,6.89003313 17.1501564,7.02122542 C17.1284539,7.02826406 17.1061649,7.03295648 17.0840714,7.03882201 C17.0840714,7.03882201 17.0840714,7.03882201 17.0840714,7.03882201 C17.0705807,7.05837376 17.0512245,7.06502136 17.0283489,7.06404377 C17.0207237,7.06697654 17.0127075,7.06814964 17.0046913,7.06736757 C16.9937423,7.07421069 16.9831844,7.08183587 16.973213,7.09004761 C16.9648057,7.09317589 16.9562029,7.09474003 16.9472091,7.09474003 C16.9472091,7.09474003 16.9472091,7.09474003 16.9472091,7.09474003 C16.9333274,7.11526938 16.912798,7.12172146 16.8895314,7.12230801 C16.8768228,7.14283736 16.85688,7.14909392 16.8342,7.15007151 C16.8216868,7.17099189 16.8015485,7.17705293 16.778673,7.17822604 C16.7788685,7.17803052 16.7792595,7.17803052 16.7792595,7.17763948 C16.7700702,7.18546019 16.7608809,7.19328089 16.751496,7.20110159 C16.7440664,7.20462091 16.7362457,7.20618505 16.7278384,7.20598953 C16.7155208,7.21263713 16.7045718,7.22104438 16.6949915,7.2312113 L16.6944049,7.23140682 C16.5915627,7.32232249 16.4648673,7.38293294 16.3702368,7.48479759 C16.3403226,7.51686247 16.3063025,7.51451626 16.2718914,7.48831691 C16.1551674,7.39994296 16.0222155,7.33444458 15.9135077,7.23492613 C15.905687,7.23492613 15.8982573,7.23336199 15.8912187,7.23003819 C15.8822249,7.22143542 15.8726445,7.2134192 15.8630642,7.20579401 C15.8630642,7.20618505 15.8634552,7.20618505 15.8636507,7.20638057 C15.8407752,7.20501194 15.8208324,7.19836435 15.8091013,7.1766619 L15.8089058,7.17646638 C15.7778185,7.1633667 15.7455581,7.1522222 15.7250288,7.12289456 C15.7023487,7.12152594 15.6826015,7.11487834 15.6704794,7.09356693 L15.6702838,7.09356693 C15.660508,7.08300898 15.64995,7.07362413 15.6366548,7.06775861 C15.6288341,7.06834516 15.6214045,7.06697654 15.6141703,7.06365274 C15.604981,7.05446341 15.5946185,7.04644719 15.5836696,7.03940856 C15.5748713,7.03921304 15.5662685,7.03745338 15.5582523,7.03373855 C15.549063,7.02669992 15.5400691,7.01927025 15.5312709,7.01144955 C15.5314664,7.01164506 15.5314664,7.01164506 15.5314664,7.01164506 C15.5314664,7.01164506 15.5314664,7.01164506 15.5314664,7.01164506 L15.5314664,7.01164506 C15.5314664,7.01164506 15.5314664,7.01164506 15.5314664,7.01164506 C15.5087863,7.01066748 15.4890391,7.00382436 15.476917,6.98270846 L15.4767214,6.98251294 C15.2176607,6.85347135 14.9585999,6.72462526 14.6995391,6.59577918 C14.465309,6.51346629 14.2396818,6.40886438 14.0050607,6.32635597 C13.7661382,6.24228341 13.5244785,6.16818225 13.2820367,6.09603627 C13.2556418,6.08821556 13.2302245,6.0774621 13.2044162,6.06807725 C13.1350075,6.06534001 13.0702912,6.04598377 13.0088986,6.0141144 L12.99619,6.01430992 L12.9838724,6.01118164 C12.9838724,6.01118164 12.9838724,6.01118164 12.9838724,6.01118164 C12.9838724,6.01118164 12.9838724,6.01118164 12.9838724,6.01118164 C12.6352645,5.93590737 12.2870477,5.85809138 11.9351161,5.80021818 C11.7773334,5.77421434 11.6179866,5.75720431 11.4594219,5.73589289 C11.4594219,5.73589289 11.4594219,5.73589289 11.4592263,5.73589289 C11.4594219,5.73589289 11.4594219,5.73608841 11.4594219,5.73608841 C11.4025262,5.73589289 11.3444575,5.74234497 11.2930364,5.70832492 C11.2654684,5.70832492 11.2379004,5.70832492 11.2103325,5.7081294 C10.960852,5.67958383 10.7074613,5.6936611 10.4515288,5.64751895 C10.4675612,5.50244491 10.4976709,5.36636468 10.543422,5.23341273 C10.5690348,5.00798097 10.6192828,4.78782818 10.6826305,4.57021712 L10.6826305,4.57021712 C10.7031599,4.37880541 10.754972,4.19365027 10.7940756,4.00575788 C10.8492115,3.74180916 10.9064982,3.47825147 10.9628072,3.21449826 L10.9628072,3.21469378 C10.9616341,3.18341097 10.9585058,3.15173712 10.9874424,3.12944812 C10.9888111,3.1114605 10.9901797,3.0936684 10.9915483,3.07568079 L10.9915483,3.07568079 C10.9890066,3.04459349 10.9874424,3.01409275 11.015597,2.99180375 C11.0142283,2.98320097 11.0148149,2.9745982 11.0169656,2.96619094 C11.0748388,2.68366805 11.1315389,2.40094964 11.1907807,2.11862226 C11.260385,1.78702446 11.3321399,1.45581769 11.4033083,1.1244154 C11.4517967,0.898201567 11.4359598,0.929679896 11.6252208,0.968783411 C12.0604429,1.05872149 12.496056,1.14611785 12.9279544,1.24993768 C13.1524085,1.29549328 13.3770582,1.33968025 13.6011214,1.38679998 C13.942104,1.45835942 14.2821091,1.53422023 14.6234828,1.6028469 C14.6948467,1.61711969 14.7280847,1.64331904 14.7310174,1.7174202 C14.737274,1.87969979 14.8086379,2.02770659 14.8408983,2.18451168 C14.8463728,2.19761136 14.8551711,2.20797379 14.865338,2.21755415 C14.8680752,2.22517934 14.8694439,2.23280453 14.8690528,2.24082075 C14.8690528,2.24101626 14.8690528,2.24101626 14.8690528,2.24101626 C14.8768735,2.25176973 14.8848898,2.26271871 14.8927105,2.27347218 L14.8927105,2.27347218 C14.8956432,2.28070633 14.8968163,2.288136 14.8962298,2.2959567 C14.9022908,2.30866534 14.9106981,2.31922329 14.9210605,2.32860814 C14.9239933,2.33545125 14.9251664,2.3426854 14.9243843,2.34991955 C14.9296633,2.36399682 14.9392436,2.3749458 14.9509747,2.38393961 L14.9503881,2.38335306 C14.9585999,2.39254238 14.9666161,2.40173171 14.9744368,2.41111655 C14.9777606,2.41854622 14.9795203,2.42617141 14.9793247,2.43418763 C14.9855813,2.44748282 14.9949661,2.45823629 15.0063062,2.46703458 L15.0057196,2.46644803 C15.0143224,2.47602839 15.0227296,2.48580427 15.0311369,2.49558014 L15.032701,2.49753532 C15.0416948,2.50418292 15.04932,2.51200362 15.0553811,2.52138846 C15.3158105,2.84340591 15.6521007,3.03540417 16.0589728,3.10637704 C16.1778475,3.100316 16.2959401,3.11576189 16.4155968,3.10755015 C16.7606854,3.08389252 17.0559169,2.94957195 17.3124359,2.72374915 C17.5734519,2.49421152 17.7402284,2.20856035 17.8123744,1.86777322 C17.8151116,1.85467354 17.8241054,1.84294248 17.830362,1.83062488 C17.830362,1.83062488 17.830362,1.83062488 17.830362,1.83062488 L17.830362,1.83062488 C17.8311441,1.81224622 17.8321217,1.79386757 17.8329037,1.77548892 C17.8327082,1.62767763 17.8323172,1.47986635 17.8321217,1.33205506 C17.8139385,1.24856906 17.7957554,1.16508306 17.7775723,1.08159705 C17.7775723,1.08159705 17.7775723,1.08159705 17.7775723,1.08159705 C17.7775723,1.08159705 17.7775723,1.08159705 17.7775723,1.08159705 C17.7486357,1.008669 17.7198946,0.935740941 17.6911535,0.862812886 C17.6457934,0.788125173 17.6002378,0.71343746 17.5546822,0.638749747 C17.3515395,0.391420016 17.1147677,0.189450362 16.8062409,0.0842619073 C16.7941189,0.0801560383 16.784343,0.068816019 16.773394,0.0607997985 L16.773394,0.0607997985 C16.6738756,0.0406614884 16.5741616,0.0203276607 16.4746431,0.000189350619 C16.2801032,0.0025355615 16.0845856,-0.0105641159 15.8921963,0.0314721624 L15.8921963,0.0314721624 C15.8433169,0.0672518784 15.783293,0.0697936069 15.728157,0.0860215655 L15.728157,0.0860215655 C15.6090868,0.145654425 15.4894301,0.203918662 15.3803313,0.280952587 C15.1928299,0.413709019 15.0450186,0.582636203 14.9337691,0.782455163 C14.8997491,0.843652164 14.8647514,0.868091861 14.7912368,0.852254937 C14.2707691,0.739832332 13.7491282,0.631320079 13.2280738,0.521048167 C13.2102817,0.517333333 13.1940538,0.506970902 13.1770437,0.499932269 C12.8644111,0.444405278 12.5545158,0.376365163 12.245207,0.305392283 C12.2444249,0.306956424 12.2432518,0.307347459 12.2424697,0.309107117 C12.2104049,0.331200603 12.1814683,0.321815759 12.1537048,0.300504344 C12.1413872,0.276064647 12.1267233,0.272740848 12.1093223,0.29600744 C12.0678725,0.308129529 12.0338525,0.293465711 12.0029607,0.267461874 C11.9976817,0.261987382 11.9924028,0.255926337 11.9871238,0.25006081 C11.9517351,0.249474257 11.9175195,0.243413212 11.8854547,0.226794219 C11.8817398,0.2299225 11.8782205,0.232268711 11.8743102,0.23637458 C11.8346201,0.252993573 11.7990359,0.246541494 11.7675576,0.217604893 C11.7640382,0.20489625 11.7591503,0.19844417 11.7532848,0.196684512 L11.750743,0.196684512 C11.7448775,0.196488995 11.7382299,0.200008311 11.7302137,0.210370742 C11.6907191,0.22503456 11.6563081,0.215845234 11.6260028,0.188081739 C11.6217014,0.177132755 11.6168135,0.170680675 11.611339,0.168529982 C11.610948,0.168529982 11.6093838,0.168138946 11.6082107,0.167943429 C11.6025407,0.167747911 11.5960886,0.172049298 11.5888545,0.183389317 C11.5507286,0.197857618 11.5176861,0.185344493 11.4858167,0.165010665 C11.4650919,0.146436496 11.4428029,0.156212374 11.4207094,0.162664454 C11.3550155,0.166379288 11.2951871,0.139788898 11.232426,0.129426467 C11.0175521,0.0944288212 10.8564457,0.202550039 10.8017007,0.413513502 C10.7747193,0.518115403 10.7719821,0.630342491 10.7088299,0.724386444 C10.7006182,0.729078866 10.6927975,0.728296795 10.6851723,0.726146102 C10.6841947,0.738854744 10.6830216,0.751758904 10.682044,0.764467546 C10.6900602,0.770137556 10.6970988,0.776980671 10.6996406,0.787734138 C10.7105896,0.823318336 10.7025733,0.854014595 10.6752009,0.879236362 C10.6671847,0.882755679 10.6609281,0.884906372 10.6534984,0.888034653 C10.6402032,1.01101521 10.6169366,1.13204059 10.5747048,1.24896009 C10.5522203,1.4403718 10.504514,1.62709108 10.4644329,1.81517899 C10.3815335,2.20504103 10.298243,2.59509859 10.2145615,2.98496063 C10.2059587,3.02523725 10.1944232,3.06492732 10.1842562,3.10500842 C10.1883621,3.14489401 10.1783907,3.18145579 10.1574703,3.21528033 C10.1590345,3.22466518 10.1584479,3.23365899 10.1555152,3.24245728 C10.1559062,3.2727625 10.1615762,3.30443635 10.1324441,3.32652983 C10.1324441,3.32672535 10.1324441,3.32672535 10.1324441,3.32672535 C10.1304889,3.34471297 10.1287293,3.36270058 10.1267741,3.38049268 C10.1285337,3.4117755 10.1318575,3.44344934 10.1031165,3.4663249 L10.1031165,3.4663249 C10.1015523,3.48470355 10.0997927,3.50288668 10.098033,3.52126534 C10.103312,3.55215711 10.0880616,3.57737888 10.0745709,3.6031872 C10.076135,3.61237653 10.0755485,3.62156585 10.0728112,3.63055966 C10.0712471,3.66966317 10.0825871,3.71169945 10.047785,3.7433733 C10.0460253,3.84817072 10.0123963,3.94690709 9.98854315,4.04740313 C9.98854315,4.04759864 9.98854315,4.04759864 9.98854315,4.04759864 L9.98854315,4.04740313 C9.99088936,4.07849042 9.99284454,4.1093822 9.96429897,4.13147568 C9.96293035,4.14965882 9.96156173,4.16784195 9.9601931,4.18602509 L9.9601931,4.1862206 C9.9601931,4.1862206 9.9601931,4.18602509 9.9601931,4.18602509 C9.96253932,4.2094872 9.95882448,4.23079861 9.93809962,4.24565795 C9.93692651,4.26247246 9.93594893,4.27928697 9.93477582,4.29610148 C9.93536237,4.32738429 9.93888169,4.35964469 9.90955405,4.38232473 C9.90818543,4.39933476 9.90662129,4.41634479 9.90525267,4.43335482 C9.85656879,4.67169074 9.80808043,4.90983115 9.75881,5.14797155 C9.74473274,5.21542511 9.72772271,5.28209661 9.7120813,5.34915913 L9.7120813,5.34915913 C9.7120813,5.34915913 9.7120813,5.34915913 9.7120813,5.34915913 C9.70993061,5.37164365 9.71071268,5.39471473 9.70523819,5.41641718 C9.64521429,5.6614007 9.64501878,5.6625738 9.391628,5.67899728 C9.31459408,5.68408074 9.2369736,5.67997487 9.15974416,5.68017039 C9.04751707,5.67332727 8.93959137,5.72005597 8.82677773,5.70656526 L8.82677773,5.70636974 C8.62383049,5.73315565 8.42107876,5.76013707 8.217936,5.78614091 C8.19095458,5.78966023 8.1633866,5.78848712 8.13601414,5.78966023 L8.13601414,5.78946471 L8.13601414,5.78966023 C8.02496016,5.80764784 7.9141017,5.82583098 7.80324323,5.84401411 L7.80324323,5.84401411 L7.80324323,5.84401411 C7.78466906,5.84538274 7.76629041,5.84675136 7.74771624,5.84811998 C7.71682446,5.88292211 7.67557026,5.8727552 7.63685778,5.87373278 C7.3512066,5.93923117 7.06555543,6.00472956 6.78009977,6.07022795 L6.78009977,6.07022795 C6.62935572,6.13572633 6.46648958,6.16348983 6.31242173,6.21862578 C6.08933618,6.29878799 5.864882,6.3756264 5.64101438,6.45402894 C5.63397575,6.45774378 5.62654608,6.45930792 5.61852986,6.45852585 C5.61852986,6.45852585 5.61852986,6.45852585 5.61852986,6.45852585 C5.60406156,6.47905519 5.58294566,6.48511624 5.55928804,6.48589831 C5.51940245,6.51815871 5.47110961,6.52969424 5.42281677,6.54122978 C5.3508663,6.60047161 5.25858201,6.61767715 5.17763773,6.65854032 C5.01125228,6.74241736 4.84154302,6.82003784 4.67320239,6.90020005 C4.45285409,7.033152 4.23172371,7.16473532 4.01235299,7.29944693 C3.92612974,7.35243219 3.84166615,7.40893677 3.76111291,7.46993826 C3.70832317,7.51001936 3.67097931,7.51412523 3.61779853,7.46700549 C3.30731662,7.19288985 2.94951946,7.01281817 2.53971463,6.94282288 C2.36765916,6.91349524 2.19403956,6.8929659 2.01866029,6.90293729 C1.98366265,6.93656631 1.94221292,6.92581285 1.90134975,6.92033836 L1.90134975,6.92033836 C1.90134975,6.92033836 1.90134975,6.92033836 1.90134975,6.92033836 C1.80906545,6.93813046 1.71678116,6.95611807 1.62430135,6.97391017 C1.23561241,7.07186448 0.903232535,7.2712924 0.614648597,7.54443045 C0.528425347,7.62596128 0.457647985,7.72391558 0.379831991,7.8142447 C0.372793358,7.82108782 0.36614576,7.82812645 0.359889198,7.8353606 C0.362235409,7.84103061 0.363799549,7.84689614 0.366536796,7.85237063 C0.367905419,7.86155996 0.370838182,7.87231342 0.366536796,7.87935206 C0.220680685,8.12218488 0.132306742,8.39023948 0.0280958753,8.65125544 C0.0253586293,8.65203751 0.0234034536,8.65242854 0.0206662075,8.65321061 C0.037871754,8.67178478 0.045692457,8.69485586 0.0413910704,8.71851348 C-0.000840725567,8.94316317 0.00600238951,9.16937701 0.0185155142,9.39578636 C0.0138230925,9.41045018 0.00658894224,9.42198571 -5.86552721e-05,9.43430332 C0.0136275749,9.45170438 0.0202751724,9.47242925 0.0237944887,9.49452273 C0.0267272523,9.52893383 0.0359165783,9.56178078 0.0535131599,9.592086 C0.141887103,9.88008339 0.251376945,10.1563497 0.436923122,10.4001601 C0.630681038,10.654724 0.864129021,10.8598219 1.14606536,11.0070467 C1.26591763,11.0698078 1.30756288,11.1464507 1.28586043,11.2844861 C1.23013792,11.6418922 1.23874069,12.000667 1.29289906,12.3588552 C1.30463011,12.4353026 1.32711464,12.5127275 1.30932254,12.5917166 C1.30599874,12.5999284 1.297787,12.6024701 1.2911394,12.606967 C1.33767258,12.7788269 1.38088197,12.9516645 1.43191205,13.1221558 C1.50171183,13.3548217 1.59614682,13.5781028 1.70602769,13.7949318 C1.72733911,13.8367725 1.75334295,13.8768536 1.76311882,13.9239734 C1.76468297,13.9237778 1.76566055,13.9241689 1.76722469,13.9239734 C1.82275168,13.9380506 1.84660483,13.9853659 1.87104453,14.0287708 C2.06910383,14.3799203 2.3068532,14.7017423 2.58018677,14.9977559 C2.60521302,15.0249328 2.6306303,15.0523053 2.6339541,15.0919954 C2.63297651,15.0988385 2.62945719,15.1041174 2.62750202,15.110374 C2.88187038,15.3874224 3.15539947,15.6437459 3.45669205,15.8697643 C3.46705448,15.8777805 3.47370208,15.8908802 3.48210933,15.9016336 C3.63187579,16.0077997 3.78164226,16.1141612 3.9312132,16.2205228 C3.93355941,16.2211093 3.9357101,16.2203273 3.93805632,16.2211093 C3.94255322,16.2230645 3.94333529,16.2283435 3.94665909,16.2314718 C3.94861426,16.2326449 3.95037392,16.2340135 3.9523291,16.2353821 L3.9523291,16.2353821 C4.08293484,16.3137847 4.22077473,16.3808472 4.33925838,16.4788015 C4.34180011,16.4774329 4.34375528,16.4750867 4.34649253,16.4739136 C4.3662398,16.4713718 4.38442294,16.4766508 4.40241055,16.483885 C4.41433712,16.4883819 4.42587266,16.4936608 4.43721268,16.4993308 C4.45480926,16.5073471 4.47221033,16.5157543 4.48980691,16.5237705 C4.83215818,16.6866367 5.16316943,16.8727694 5.51607865,17.0133465 C5.55029423,17.0270328 5.58255463,17.0442383 5.60034673,17.079236 C5.60210639,17.0860791 5.60621225,17.0899894 5.60914502,17.0952684 C5.61110019,17.0956594 5.61305537,17.095855 5.61501055,17.0964415 C5.63769058,17.0956594 5.65724234,17.1021115 5.67053754,17.1216633 C5.67992238,17.1232274 5.68911171,17.124596 5.69849655,17.1259647 C5.70866346,17.1339809 5.71785279,17.1431702 5.72997488,17.1484492 C5.7379911,17.1474716 5.7458118,17.1484492 5.75324147,17.151382 C5.75324147,17.151382 5.75343699,17.151382 5.75343699,17.151382 C5.75343699,17.151382 5.75324147,17.151382 5.75324147,17.151382 C5.77631254,17.1505999 5.79645085,17.1564654 5.80994157,17.1767992 C5.96967942,17.2250921 6.12922176,17.274558 6.28368065,17.3386878 C6.28368065,17.3386878 6.28368065,17.3386878 6.28348513,17.3386878 C6.28368065,17.3386878 6.28368065,17.3386878 6.28368065,17.3386878 C6.32200209,17.3412295 6.35719526,17.3543292 6.39082428,17.3727078 L6.39082428,17.3727078 L6.39082428,17.3727078 C6.70228377,17.4559983 7.01374327,17.5390933 7.32520276,17.6223838 C7.35374833,17.5957934 7.38190286,17.6049827 7.40966635,17.6257076 C7.41866016,17.6513204 7.43175984,17.6558173 7.45013849,17.6331373 C7.49002408,17.6174959 7.52521724,17.6337238 7.56080144,17.6491697 C7.58778286,17.6573814 7.61515532,17.6511249 7.6427233,17.6505383 C8.01322911,17.696876 8.38002007,17.7666758 8.75209002,17.8048017 C9.25300604,17.8562228 9.75450862,17.8583735 10.2567933,17.8564183 C10.3303079,17.8562228 10.404409,17.8503573 10.4767505,17.8683449 C10.4963023,17.8771432 10.5142899,17.8867236 10.5201554,17.8988456 C10.6863454,17.9041246 10.8497981,17.8601332 11.016379,17.8704956 C11.060566,17.869518 11.104753,17.8685404 11.14894,17.8675628 C11.1491355,17.8675628 11.1491355,17.8675628 11.1491355,17.8675628 C11.2015342,17.82494 11.2637088,17.8499662 11.3211909,17.8429276 C11.3952921,17.8382352 11.4658739,17.8044107 11.5421258,17.8163372 C11.5421258,17.8163372 11.5421258,17.8163372 11.5421258,17.8163372 C11.5687162,17.8151641 11.5953066,17.813991 11.621897,17.8130134 C11.6899371,17.7629609 11.7720545,17.7915065 11.8467422,17.7744965 C11.983409,17.7434092 12.1235951,17.7283543 12.262217,17.7066519 C12.2624125,17.7066519 12.2624125,17.7066519 12.2624125,17.7066519 L12.2624125,17.7066519 C12.5470861,17.6397849 12.8350835,17.5881682 13.1178019,17.5115253 C13.1922941,17.4911915 13.263267,17.4536521 13.3434292,17.4563894 C13.6011214,17.3721213 13.8588135,17.2878532 14.1165057,17.2037807 L14.1165057,17.2035851 C14.3388092,17.1120829 14.5613082,17.0205807 14.7836116,16.9290785 C14.826039,16.9054208 14.8659245,16.8764842 14.9161726,16.8708142 C14.9290767,16.8659263 14.9388526,16.857128 14.949215,16.8485252 C14.9570357,16.8450059 14.965443,16.8432463 14.9740458,16.8434418 C14.9740458,16.8434418 14.9740458,16.8434418 14.9740458,16.8434418 C14.988123,16.8227169 15.0088479,16.8166559 15.03231,16.8156783 C15.0450186,16.7949534 15.065157,16.7890879 15.087837,16.7883058 C15.1005456,16.7673854 15.1206839,16.7615199 15.143364,16.7603468 C15.143364,16.7605423 15.1429729,16.7605423 15.1429729,16.7609334 C15.1519668,16.7533082 15.1611561,16.746074 15.1705409,16.7390354 C15.1785571,16.735125 15.1869644,16.7331699 15.1957627,16.7331699 C15.2059296,16.7259357 15.2160965,16.718506 15.2260679,16.7106853 C15.2338886,16.7069705 15.2421004,16.7052109 15.2507031,16.7054064 C15.2612611,16.6983677 15.2716235,16.6907426 15.2815949,16.6827263 C15.2894156,16.679207 15.2974318,16.6770563 15.3058391,16.6762743 C15.3058391,16.6762743 15.3058391,16.6762743 15.3058391,16.6762743 C15.4034024,16.6137086 15.4984239,16.5462551 15.6100644,16.5094978 C15.6100644,16.5094978 15.61026,16.5094978 15.61026,16.5094978 C15.7799692,16.3874948 15.9588678,16.2799601 16.1401126,16.1759448 C16.2625066,16.0742756 16.3907661,15.9802317 16.5266508,15.8971367 L16.5268463,15.8971367 C16.684629,15.7620341 16.8426072,15.627127 17.0005854,15.4920243 L17.0005854,15.4920243 C17.0260027,15.471495 17.0512245,15.4507701 17.0764462,15.4302408 C17.0897414,15.4243752 17.1014725,15.4165545 17.1081201,15.4032593 C17.1081201,15.4020862 17.1079246,15.4011086 17.107729,15.3999355 C17.2485017,15.210088 17.4275958,15.0554336 17.5824457,14.8784902 C17.7689695,14.6333111 17.9594036,14.3910648 18.113667,14.1228147 C18.2745779,13.8428336 18.4208251,13.5564003 18.526209,13.2502198 C18.5336387,13.2285174 18.5449787,13.2081835 18.5543636,13.1872631 C18.5543636,13.1872631 18.5543636,13.1872631 18.5543636,13.1872631 C18.5526039,13.1643876 18.5582739,13.1446403 18.5782167,13.1307586 C18.5782167,13.1305631 18.5782167,13.1303675 18.5782167,13.130172 C18.5705915,13.1123799 18.5623798,13.0945878 18.558665,13.0744495 C18.6241634,12.7913401 18.6896617,12.5082306 18.7268101,12.2194512 C18.731307,12.184649 18.7379546,12.1486738 18.7627853,12.1211058 C18.7577019,12.1119165 18.7516408,12.1039003 18.7473394,12.0937334 C18.7248549,11.9240241 18.7385411,11.7533373 18.7371725,11.583237 C18.7363904,11.4768754 18.7277877,11.372078 18.7129283,11.2668895 C18.6988511,11.1691308 18.7191849,11.0834941 18.8187033,11.0344191 C19.2066102,10.8430074 19.4985179,10.5505131 19.7184752,10.181767 C19.7348987,10.154199 19.754646,10.1283907 19.7804543,10.1082524 C19.7865153,10.1061017 19.7929674,10.1055152 19.799224,10.1037555 C19.7853422,10.059373 19.810564,10.0320005 19.8463437,10.0093205 C19.8508406,10.0083429 19.8541644,10.0063877 19.8584658,10.0052146 C19.8662865,9.9858584 19.8741072,9.96630664 19.8819279,9.94675488 C19.8819279,9.94675488 19.8819279,9.94675488 19.8819279,9.94675488 C19.8819279,9.94675488 19.8819279,9.94675488 19.8819279,9.94675488 C19.8811458,9.92348829 19.8872069,9.90295894 19.9077362,9.8890772 C19.9075407,9.88027891 19.9087138,9.87148061 19.9116466,9.86307336 L19.9116466,9.86307336 C19.9100824,9.8401978 19.9161435,9.82064605 19.9358908,9.80695982 C19.9353042,9.79777049 19.9364773,9.78877668 19.9394101,9.77997839 C19.9394101,9.77978287 19.9394101,9.77978287 19.9394101,9.77978287 C19.9392146,9.77978287 19.9394101,9.77997839 19.9392146,9.77997839 C19.9376504,9.7567118 19.9431249,9.73676901 19.9628722,9.72230071 C19.9622856,9.71369793 19.9632632,9.70529068 19.9658049,9.69707894 L19.9658049,9.69707894 C19.9658049,9.69707894 19.9658049,9.69707894 19.9658049,9.69707894 C19.9646318,9.67381235 19.9691287,9.65269645 19.9892671,9.6376416 C19.9863343,9.6176988 19.9810553,9.59775601 19.9697153,9.5776177 C19.9648274,9.48513789 19.9810553,9.39383118 19.9894626,9.30252447 C20.055352,8.58751671 19.810955,7.99431639 19.2924424,7.50669556 C19.248842,7.46583239 19.2009402,7.42887957 19.1790422,7.37002878" id="Fill-1" fill="#FFFFFF" mask="url(#mask-2)"></path>
            </g>
        </g>
    </g>
</svg>