<?xml version="1.0" encoding="UTF-8"?>
<svg width="20px" height="17px" viewBox="0 0 20 17" version="1.1" xmlns="http://www.w3.org/2000/svg" xmlns:xlink="http://www.w3.org/1999/xlink">
    <title>Group 3</title>
    <defs>
        <polygon id="path-1" points="5.03104202e-16 0 20 0 20 16.7913172 5.03104202e-16 16.7913172"></polygon>
    </defs>
    <g id="Desktop" stroke="none" stroke-width="1" fill="none" fill-rule="evenodd">
        <g id="one-pager-desktop-Design" transform="translate(-1003.000000, -419.000000)">
            <g id="Group-3" transform="translate(1003.000000, 419.000000)">
                <mask id="mask-2" fill="white">
                    <use xlink:href="#path-1"></use>
                </mask>
                <g id="Clip-2"></g>
                <path d="M16.9075881,15.7851599 L19.9320266,1.5383135 C20.1774861,0.544013753 19.725463,-0.00694839168 19.1186116,-0.000213206602 C18.9777556,0.00702391768 18.8289694,0.0428987661 18.6794279,0.110872163 L0.932329276,6.95768138 C-0.280240599,7.44897799 -0.2651354,8.12455803 0.717457816,8.41608838 L5.25241628,9.83635474 L15.7867823,3.19648675 C16.2780789,2.88947358 16.7387875,3.05827418 16.3702206,3.39625301 L7.80368444,11.0874429 L7.53367901,15.6318421 L7.53367901,15.7851599 C7.7640333,15.7851599 7.9290576,15.7315364 8.06915832,15.6469473 C8.20925905,15.5627358 8.32443619,15.4475587 8.45471853,15.3244513 C8.45736194,15.3221855 8.46340402,15.3161434 8.46604743,15.3138776 C8.6911149,15.0956075 10.4085761,13.4268606 10.6294896,13.2123668 C10.6430843,13.1991497 10.6555461,13.1866879 10.6691408,13.1734709 L15.2713174,16.5679868 C15.5741766,16.7333887 15.8456926,16.8058937 16.0817113,16.7889004 C16.4846425,16.7432071 16.7735294,16.4165572 16.9075881,15.7851599" id="Fill-1" fill="#FFFFFF" mask="url(#mask-2)"></path>
            </g>
        </g>
    </g>
</svg>