<?xml version="1.0" encoding="UTF-8"?>
<svg width="21px" height="15px" viewBox="0 0 21 15" version="1.1" xmlns="http://www.w3.org/2000/svg" xmlns:xlink="http://www.w3.org/1999/xlink">
    <title>Group 3</title>
    <defs>
        <polygon id="path-1" points="0 0 20 0 20 14.6668161 0 14.6668161"></polygon>
    </defs>
    <g id="Desktop" stroke="none" stroke-width="1" fill="none" fill-rule="evenodd">
        <g id="one-pager-desktop-Design" transform="translate(-1126.000000, -421.000000)">
            <g id="Group-3" transform="translate(1126.500000, 421.000000)">
                <mask id="mask-2" fill="white">
                    <use xlink:href="#path-1"></use>
                </mask>
                <g id="Clip-2"></g>
                <path d="M14.0643356,7.37754937 L7.38529831,10.9855136 C7.16223939,11.1061758 6.89130305,10.9445549 6.89130305,10.6913305 L6.88853557,3.4463434 C6.88853557,3.19228869 7.16030215,3.03066783 7.38336108,3.15216023 L14.0651659,6.78890628 C14.2987412,6.91593363 14.2981877,7.25135226 14.0643356,7.37754937 M15.0791707,0 L4.92113373,0 C2.20319118,0 0,2.20319118 0,4.92085698 L0,9.74595913 C0,12.4636249 2.20319118,14.6668161 4.92113373,14.6668161 L15.0791707,14.6668161 C17.7968365,14.6668161 20.0000277,12.4636249 20.0000277,9.74595913 L20.0000277,4.92085698 C20.0000277,2.20319118 17.7968365,0 15.0791707,0" id="Fill-1" fill="#FFFFFF" mask="url(#mask-2)"></path>
            </g>
        </g>
    </g>
</svg>